# Blender 3.4.1
# www.blender.org
mtllib 10.1.mtl
o 10.1
v 1.761135 0.020905 2.566263
v 1.761135 0.048336 2.566263
v 1.828676 0.020905 2.572915
v 1.828676 0.048336 2.572915
v 1.893622 0.020905 2.592616
v 1.893622 0.048336 2.592616
v 1.953476 0.020905 2.624609
v 1.953476 0.048336 2.624609
v 2.005939 0.020905 2.667664
v 2.005939 0.048336 2.667664
v 2.048994 0.020905 2.720127
v 2.048994 0.048336 2.720127
v 2.080986 0.020905 2.779981
v 2.080986 0.048336 2.779981
v 2.100687 0.020905 2.844926
v 2.100687 0.048336 2.844926
v 2.107339 0.020905 2.912467
v 2.107339 0.048336 2.912467
v 2.100687 0.020904 2.980008
v 2.100687 0.048336 2.980008
v 2.080986 0.020904 3.044954
v 2.080986 0.048336 3.044954
v 2.048994 0.020904 3.104808
v 2.048994 0.048336 3.104808
v 2.005939 0.020904 3.157271
v 2.005939 0.048336 3.157271
v 1.953476 0.020904 3.200325
v 1.953476 0.048336 3.200325
v 1.893622 0.020904 3.232318
v 1.893622 0.048336 3.232318
v 1.828676 0.020904 3.252019
v 1.828676 0.048336 3.252019
v 1.761135 0.020904 3.258671
v 1.761135 0.048336 3.258671
v 1.693594 0.020904 3.252019
v 1.693594 0.048336 3.252019
v 1.628649 0.020904 3.232318
v 1.628649 0.048336 3.232318
v 1.568794 0.020904 3.200325
v 1.568794 0.048336 3.200325
v 1.516332 0.020904 3.157271
v 1.516332 0.048336 3.157271
v 1.473277 0.020904 3.104808
v 1.473277 0.048336 3.104808
v 1.441284 0.020904 3.044954
v 1.441284 0.048336 3.044954
v 1.421583 0.020904 2.980008
v 1.421583 0.048336 2.980008
v 1.414931 0.020905 2.912467
v 1.414931 0.048336 2.912467
v 1.421583 0.020905 2.844926
v 1.421583 0.048336 2.844926
v 1.441284 0.020905 2.779981
v 1.441284 0.048336 2.779981
v 1.473277 0.020905 2.720127
v 1.473277 0.048336 2.720127
v 1.516332 0.020905 2.667664
v 1.516332 0.048336 2.667664
v 1.568794 0.020905 2.624609
v 1.568794 0.048336 2.624609
v 1.628649 0.020905 2.592616
v 1.628649 0.048336 2.592616
v 1.693594 0.020905 2.572915
v 1.693594 0.048336 2.572915
vn 0.0980 -0.0000 -0.9952
vn 0.2903 -0.0000 -0.9569
vn 0.4714 -0.0000 -0.8819
vn 0.6344 -0.0000 -0.7730
vn 0.7730 -0.0000 -0.6344
vn 0.8819 -0.0000 -0.4714
vn 0.9569 -0.0000 -0.2903
vn 0.9952 -0.0000 -0.0980
vn 0.9952 -0.0000 0.0980
vn 0.9569 -0.0000 0.2903
vn 0.8819 -0.0000 0.4714
vn 0.7730 -0.0000 0.6344
vn 0.6344 -0.0000 0.7730
vn 0.4714 -0.0000 0.8819
vn 0.2903 -0.0000 0.9569
vn 0.0980 -0.0000 0.9952
vn -0.0980 -0.0000 0.9952
vn -0.2903 -0.0000 0.9569
vn -0.4714 -0.0000 0.8819
vn -0.6344 -0.0000 0.7730
vn -0.7730 -0.0000 0.6344
vn -0.8819 -0.0000 0.4714
vn -0.9569 -0.0000 0.2903
vn -0.9952 -0.0000 0.0980
vn -0.9952 -0.0000 -0.0980
vn -0.9569 -0.0000 -0.2903
vn -0.8819 -0.0000 -0.4714
vn -0.7730 -0.0000 -0.6344
vn -0.6344 -0.0000 -0.7730
vn -0.4714 -0.0000 -0.8819
vn -0.0000 1.0000 -0.0000
vn -0.2903 -0.0000 -0.9569
vn -0.0980 -0.0000 -0.9952
vn -0.0000 -1.0000 -0.0000
vn 0.0001 -1.0000 -0.0000
vn -0.0001 -1.0000 -0.0000
vt 0.313257 0.506867
vt 0.686743 0.506867
vt 0.406629 0.510602
vt 0.313257 0.320125
vt 0.809193 0.464764
vt 0.686743 0.320125
vt 0.324928 0.506867
vt 0.389141 0.512325
vt 0.324928 0.320125
vt 0.809193 0.438940
vt 0.336600 0.506867
vt 0.372326 0.517425
vt 0.336600 0.320125
vt 0.806360 0.413612
vt 0.348271 0.506867
vt 0.356829 0.525709
vt 0.348271 0.320125
vt 0.800801 0.389753
vt 0.359943 0.506867
vt 0.343246 0.536856
vt 0.359943 0.320125
vt 0.792730 0.368280
vt 0.371614 0.506867
vt 0.332098 0.550439
vt 0.371614 0.320125
vt 0.782459 0.350020
vt 0.383286 0.506867
vt 0.323815 0.565936
vt 0.383286 0.320125
vt 0.770380 0.335672
vt 0.394957 0.506867
vt 0.318714 0.582752
vt 0.394957 0.320125
vt 0.756960 0.325790
vt 0.406629 0.506867
vt 0.316992 0.600239
vt 0.406629 0.320125
vt 0.742713 0.320751
vt 0.418300 0.506867
vt 0.318714 0.617726
vt 0.418300 0.320125
vt 0.728186 0.320751
vt 0.429971 0.506867
vt 0.323815 0.634541
vt 0.429971 0.320125
vt 0.713939 0.325789
vt 0.441643 0.506867
vt 0.332098 0.650038
vt 0.441643 0.320125
vt 0.700519 0.335672
vt 0.453314 0.506867
vt 0.343246 0.663622
vt 0.453314 0.320125
vt 0.688441 0.350019
vt 0.464986 0.506867
vt 0.356829 0.674769
vt 0.464986 0.320125
vt 0.678169 0.368280
vt 0.476657 0.506867
vt 0.372326 0.683052
vt 0.476657 0.320125
vt 0.670098 0.389752
vt 0.488329 0.506867
vt 0.389141 0.688153
vt 0.488329 0.320125
vt 0.664539 0.413611
vt 0.500000 0.506867
vt 0.406629 0.689875
vt 0.500000 0.320125
vt 0.661705 0.438939
vt 0.511671 0.506867
vt 0.424116 0.688153
vt 0.511671 0.320125
vt 0.661705 0.464764
vt 0.523343 0.506867
vt 0.440931 0.683052
vt 0.523343 0.320125
vt 0.664539 0.490092
vt 0.535014 0.506867
vt 0.456428 0.674769
vt 0.535014 0.320125
vt 0.670098 0.513951
vt 0.546686 0.506867
vt 0.470011 0.663622
vt 0.546686 0.320125
vt 0.678169 0.535423
vt 0.558357 0.506867
vt 0.481159 0.650038
vt 0.558357 0.320125
vt 0.688440 0.553684
vt 0.570029 0.506867
vt 0.489442 0.634541
vt 0.570029 0.320125
vt 0.700518 0.568032
vt 0.581700 0.506867
vt 0.494543 0.617726
vt 0.581700 0.320125
vt 0.713939 0.577914
vt 0.593371 0.506867
vt 0.496265 0.600239
vt 0.593371 0.320125
vt 0.728186 0.582952
vt 0.605043 0.506867
vt 0.494543 0.582752
vt 0.605043 0.320125
vt 0.742712 0.582952
vt 0.616714 0.506867
vt 0.489442 0.565936
vt 0.616714 0.320125
vt 0.756960 0.577914
vt 0.628386 0.506867
vt 0.481159 0.550439
vt 0.628386 0.320125
vt 0.770380 0.568032
vt 0.640057 0.506867
vt 0.470011 0.536856
vt 0.640057 0.320125
vt 0.782458 0.553684
vt 0.651729 0.506867
vt 0.456428 0.525709
vt 0.651729 0.320125
vt 0.792730 0.535424
vt 0.663400 0.506867
vt 0.440931 0.517425
vt 0.800801 0.513951
vt 0.663400 0.320125
vt 0.675071 0.506867
vt 0.424116 0.512325
vt 0.806360 0.490093
vt 0.675071 0.320125
s 0
usemtl NUMBERS.006
f 2/4/1 3/7/1 1/1/1
f 4/9/2 5/11/2 3/7/2
f 6/13/3 7/15/3 5/11/3
f 8/17/4 9/19/4 7/15/4
f 10/21/5 11/23/5 9/19/5
f 12/25/6 13/27/6 11/23/6
f 14/29/7 15/31/7 13/27/7
f 16/33/8 17/35/8 15/31/8
f 18/37/9 19/39/9 17/35/9
f 20/41/10 21/43/10 19/39/10
f 22/45/11 23/47/11 21/43/11
f 24/49/12 25/51/12 23/47/12
f 26/53/13 27/55/13 25/51/13
f 28/57/14 29/59/14 27/55/14
f 30/61/15 31/63/15 29/59/15
f 32/65/16 33/67/16 31/63/16
f 34/69/17 35/71/17 33/67/17
f 36/73/18 37/75/18 35/71/18
f 38/77/19 39/79/19 37/75/19
f 40/81/20 41/83/20 39/79/20
f 42/85/21 43/87/21 41/83/21
f 44/89/22 45/91/22 43/87/22
f 46/93/23 47/95/23 45/91/23
f 48/97/24 49/99/24 47/95/24
f 50/101/25 51/103/25 49/99/25
f 52/105/26 53/107/26 51/103/26
f 54/109/27 55/111/27 53/107/27
f 56/113/28 57/115/28 55/111/28
f 58/117/29 59/119/29 57/115/29
f 60/121/30 61/123/30 59/119/30
f 38/78/31 22/46/31 6/14/31
f 62/126/32 63/127/32 61/123/32
f 64/130/33 1/2/33 63/127/33
f 31/64/34 47/96/34 63/128/34
f 2/4/1 4/9/1 3/7/1
f 4/9/2 6/13/2 5/11/2
f 6/13/3 8/17/3 7/15/3
f 8/17/4 10/21/4 9/19/4
f 10/21/5 12/25/5 11/23/5
f 12/25/6 14/29/6 13/27/6
f 14/29/7 16/33/7 15/31/7
f 16/33/8 18/37/8 17/35/8
f 18/37/9 20/41/9 19/39/9
f 20/41/10 22/45/10 21/43/10
f 22/45/11 24/49/11 23/47/11
f 24/49/12 26/53/12 25/51/12
f 26/53/13 28/57/13 27/55/13
f 28/57/14 30/61/14 29/59/14
f 30/61/15 32/65/15 31/63/15
f 32/65/16 34/69/16 33/67/16
f 34/69/17 36/73/17 35/71/17
f 36/73/18 38/77/18 37/75/18
f 38/77/19 40/81/19 39/79/19
f 40/81/20 42/85/20 41/83/20
f 42/85/21 44/89/21 43/87/21
f 44/89/22 46/93/22 45/91/22
f 46/93/23 48/97/23 47/95/23
f 48/97/24 50/101/24 49/99/24
f 50/101/25 52/105/25 51/103/25
f 52/105/26 54/109/26 53/107/26
f 54/109/27 56/113/27 55/111/27
f 56/113/28 58/117/28 57/115/28
f 58/117/29 60/121/29 59/119/29
f 60/121/30 62/126/30 61/123/30
f 6/14/31 4/10/31 2/5/31
f 2/5/31 64/129/31 62/125/31
f 62/125/31 60/122/31 58/118/31
f 58/118/31 56/114/31 54/110/31
f 54/110/31 52/106/31 50/102/31
f 50/102/31 48/98/31 46/94/31
f 46/94/31 44/90/31 42/86/31
f 42/86/31 40/82/31 38/78/31
f 38/78/31 36/74/31 34/70/31
f 34/70/31 32/66/31 30/62/31
f 30/62/31 28/58/31 26/54/31
f 26/54/31 24/50/31 22/46/31
f 22/46/31 20/42/31 18/38/31
f 18/38/31 16/34/31 14/30/31
f 14/30/31 12/26/31 10/22/31
f 10/22/31 8/18/31 6/14/31
f 6/14/31 2/5/31 62/125/31
f 62/125/31 58/118/31 54/110/31
f 54/110/31 50/102/31 46/94/31
f 46/94/31 42/86/31 38/78/31
f 38/78/31 34/70/31 30/62/31
f 30/62/31 26/54/31 22/46/31
f 22/46/31 18/38/31 14/30/31
f 14/30/31 10/22/31 6/14/31
f 6/14/31 62/125/31 54/110/31
f 54/110/31 46/94/31 38/78/31
f 38/78/31 30/62/31 22/46/31
f 22/46/31 14/30/31 6/14/31
f 6/14/31 54/110/31 38/78/31
f 62/126/32 64/130/32 63/127/32
f 64/130/33 2/6/33 1/2/33
f 63/128/34 1/3/34 3/8/34
f 3/8/34 5/12/34 7/16/34
f 7/16/34 9/20/34 11/24/34
f 11/24/34 13/28/34 15/32/34
f 15/32/35 17/36/35 19/40/35
f 19/40/34 21/44/34 23/48/34
f 23/48/34 25/52/34 27/56/34
f 27/56/34 29/60/34 31/64/34
f 31/64/34 33/68/34 35/72/34
f 35/72/34 37/76/34 39/80/34
f 39/80/34 41/84/34 43/88/34
f 43/88/34 45/92/34 47/96/34
f 47/96/36 49/100/36 51/104/36
f 51/104/34 53/108/34 55/112/34
f 55/112/34 57/116/34 59/120/34
f 59/120/34 61/124/34 63/128/34
f 63/128/34 3/8/34 7/16/34
f 7/16/34 11/24/34 15/32/34
f 15/32/34 19/40/34 23/48/34
f 23/48/34 27/56/34 31/64/34
f 31/64/34 35/72/34 39/80/34
f 39/80/34 43/88/34 47/96/34
f 47/96/34 51/104/34 55/112/34
f 55/112/34 59/120/34 63/128/34
f 63/128/34 7/16/34 15/32/34
f 15/32/34 23/48/34 31/64/34
f 31/64/34 39/80/34 47/96/34
f 47/96/34 55/112/34 63/128/34
f 63/128/34 15/32/34 31/64/34
