# Blender 3.4.1
# www.blender.org
mtllib 12.mtl
o 12
v 0.049823 0.020905 -3.281451
v 0.049823 0.048336 -3.281451
v 0.117364 0.020905 -3.274798
v 0.117364 0.048336 -3.274798
v 0.182310 0.020905 -3.255098
v 0.182310 0.048336 -3.255098
v 0.242164 0.020905 -3.223105
v 0.242164 0.048336 -3.223105
v 0.294627 0.020905 -3.180050
v 0.294627 0.048336 -3.180050
v 0.337682 0.020905 -3.127587
v 0.337682 0.048336 -3.127587
v 0.369674 0.020905 -3.067733
v 0.369674 0.048336 -3.067733
v 0.389375 0.020905 -3.002787
v 0.389375 0.048336 -3.002787
v 0.396027 0.020905 -2.935246
v 0.396027 0.048336 -2.935246
v 0.389375 0.020904 -2.867706
v 0.389375 0.048336 -2.867706
v 0.369674 0.020904 -2.802760
v 0.369674 0.048336 -2.802760
v 0.337682 0.020904 -2.742906
v 0.337682 0.048336 -2.742906
v 0.294627 0.020904 -2.690443
v 0.294627 0.048336 -2.690443
v 0.242164 0.020904 -2.647388
v 0.242164 0.048336 -2.647388
v 0.182310 0.020904 -2.615395
v 0.182310 0.048336 -2.615395
v 0.117364 0.020904 -2.595695
v 0.117364 0.048336 -2.595695
v 0.049823 0.020904 -2.589042
v 0.049823 0.048336 -2.589042
v -0.017718 0.020904 -2.595695
v -0.017718 0.048336 -2.595695
v -0.082663 0.020904 -2.615395
v -0.082663 0.048336 -2.615395
v -0.142517 0.020904 -2.647388
v -0.142517 0.048336 -2.647388
v -0.194980 0.020904 -2.690443
v -0.194980 0.048336 -2.690443
v -0.238035 0.020904 -2.742906
v -0.238035 0.048336 -2.742906
v -0.270028 0.020904 -2.802760
v -0.270028 0.048336 -2.802760
v -0.289729 0.020904 -2.867706
v -0.289729 0.048336 -2.867706
v -0.296381 0.020905 -2.935246
v -0.296381 0.048336 -2.935246
v -0.289729 0.020905 -3.002787
v -0.289729 0.048336 -3.002787
v -0.270028 0.020905 -3.067733
v -0.270028 0.048336 -3.067733
v -0.238035 0.020905 -3.127587
v -0.238035 0.048336 -3.127587
v -0.194980 0.020905 -3.180050
v -0.194980 0.048336 -3.180050
v -0.142517 0.020905 -3.223105
v -0.142517 0.048336 -3.223105
v -0.082663 0.020905 -3.255098
v -0.082663 0.048336 -3.255098
v -0.017718 0.020905 -3.274798
v -0.017718 0.048336 -3.274798
vn 0.0980 -0.0000 -0.9952
vn 0.2903 -0.0000 -0.9569
vn 0.4714 -0.0000 -0.8819
vn 0.6344 -0.0000 -0.7730
vn 0.7730 -0.0000 -0.6344
vn 0.8819 -0.0000 -0.4714
vn 0.9569 -0.0000 -0.2903
vn 0.9952 -0.0000 -0.0980
vn 0.9952 -0.0000 0.0980
vn 0.9569 -0.0000 0.2903
vn 0.8819 -0.0000 0.4714
vn 0.7730 -0.0000 0.6344
vn 0.6344 -0.0000 0.7730
vn 0.4714 -0.0000 0.8819
vn 0.2903 -0.0000 0.9569
vn 0.0980 -0.0000 0.9952
vn -0.0980 -0.0000 0.9952
vn -0.2903 -0.0000 0.9569
vn -0.4714 -0.0000 0.8819
vn -0.6344 -0.0000 0.7730
vn -0.7730 -0.0000 0.6344
vn -0.8819 -0.0000 0.4714
vn -0.9569 -0.0000 0.2903
vn -0.9952 -0.0000 0.0980
vn -0.9952 -0.0000 -0.0980
vn -0.9569 -0.0000 -0.2903
vn -0.8819 -0.0000 -0.4714
vn -0.7730 -0.0000 -0.6344
vn -0.6344 -0.0000 -0.7730
vn -0.4714 -0.0000 -0.8819
vn -0.0000 1.0000 -0.0000
vn -0.2903 -0.0000 -0.9569
vn -0.0980 -0.0000 -0.9952
vn -0.0000 -1.0000 -0.0000
vn 0.0001 -1.0000 -0.0000
vn -0.0001 -1.0000 -0.0000
vt 0.682365 0.503176
vt 0.317635 0.503176
vt 0.591182 0.499529
vt 0.682365 0.685541
vt 0.474902 0.800844
vt 0.317635 0.685541
vt 0.670967 0.503176
vt 0.608260 0.497847
vt 0.670967 0.685541
vt 0.636105 0.702408
vt 0.474902 0.768730
vt 0.659569 0.503176
vt 0.626163 0.543335
vt 0.624681 0.492866
vt 0.626163 0.702408
vt 0.659569 0.685541
vt 0.471378 0.737232
vt 0.648171 0.503176
vt 0.639814 0.484777
vt 0.648171 0.685541
vt 0.464465 0.707562
vt 0.636774 0.503176
vt 0.653079 0.473891
vt 0.636774 0.685541
vt 0.454429 0.680860
vt 0.625376 0.503176
vt 0.663965 0.460626
vt 0.625376 0.685541
vt 0.441655 0.658151
vt 0.613978 0.503176
vt 0.672054 0.445492
vt 0.613978 0.685541
vt 0.426635 0.640310
vt 0.602580 0.503176
vt 0.677035 0.429071
vt 0.602580 0.685541
vt 0.409946 0.628020
vt 0.591182 0.503176
vt 0.678717 0.411994
vt 0.591182 0.685541
vt 0.392229 0.621755
vt 0.579785 0.503176
vt 0.677035 0.394917
vt 0.579785 0.685541
vt 0.374164 0.621755
vt 0.568387 0.503176
vt 0.672054 0.378496
vt 0.568387 0.685541
vt 0.546627 0.702408
vt 0.356447 0.628020
vt 0.556989 0.503176
vt 0.536685 0.543335
vt 0.663965 0.363362
vt 0.536685 0.702408
vt 0.556989 0.685541
vt 0.339757 0.640309
vt 0.545591 0.503176
vt 0.653079 0.350097
vt 0.545591 0.685541
vt 0.324737 0.658151
vt 0.534193 0.503176
vt 0.639814 0.339211
vt 0.534193 0.685541
vt 0.311964 0.680860
vt 0.522796 0.503176
vt 0.624681 0.331122
vt 0.522796 0.685541
vt 0.301928 0.707562
vt 0.511398 0.503176
vt 0.608260 0.326141
vt 0.511398 0.685541
vt 0.295015 0.737232
vt 0.500000 0.503176
vt 0.591182 0.324459
vt 0.500000 0.685541
vt 0.291491 0.768729
vt 0.488602 0.503176
vt 0.574105 0.326141
vt 0.488602 0.685541
vt 0.291491 0.800844
vt 0.477204 0.503176
vt 0.557684 0.331122
vt 0.477204 0.685541
vt 0.295015 0.832341
vt 0.465807 0.503176
vt 0.542550 0.339211
vt 0.465807 0.685541
vt 0.301928 0.862011
vt 0.454409 0.503176
vt 0.529286 0.350097
vt 0.454409 0.685541
vt 0.311964 0.888714
vt 0.443011 0.503176
vt 0.518399 0.363362
vt 0.443011 0.685541
vt 0.324737 0.911422
vt 0.431613 0.503176
vt 0.510311 0.378496
vt 0.431613 0.685541
vt 0.339757 0.929264
vt 0.420215 0.503176
vt 0.505329 0.394917
vt 0.420215 0.685541
vt 0.356447 0.941554
vt 0.408818 0.503176
vt 0.503647 0.411994
vt 0.408818 0.685541
vt 0.374164 0.947819
vt 0.397420 0.503176
vt 0.505329 0.429071
vt 0.397420 0.685541
vt 0.392228 0.947819
vt 0.386022 0.503176
vt 0.510311 0.445492
vt 0.386022 0.685541
vt 0.409946 0.941554
vt 0.374624 0.503176
vt 0.518399 0.460626
vt 0.374624 0.685541
vt 0.426635 0.929264
vt 0.363226 0.503176
vt 0.529286 0.473891
vt 0.363226 0.685541
vt 0.441655 0.911423
vt 0.351829 0.503176
vt 0.542550 0.484777
vt 0.351829 0.685541
vt 0.454429 0.888714
vt 0.340431 0.503176
vt 0.557684 0.492866
vt 0.464465 0.862012
vt 0.340431 0.685541
vt 0.329033 0.503176
vt 0.574105 0.497847
vt 0.471378 0.832342
vt 0.329033 0.685541
s 0
usemtl NUMBERS
f 2/4/1 3/7/1 1/1/1
f 4/9/2 5/12/2 3/7/2
f 6/16/3 7/18/3 5/12/3
f 8/20/4 9/22/4 7/18/4
f 10/24/5 11/26/5 9/22/5
f 12/28/6 13/30/6 11/26/6
f 14/32/7 15/34/7 13/30/7
f 16/36/8 17/38/8 15/34/8
f 18/40/9 19/42/9 17/38/9
f 20/44/10 21/46/10 19/42/10
f 22/48/11 23/51/11 21/46/11
f 24/55/12 25/57/12 23/51/12
f 26/59/13 27/61/13 25/57/13
f 28/63/14 29/65/14 27/61/14
f 30/67/15 31/69/15 29/65/15
f 32/71/16 33/73/16 31/69/16
f 34/75/17 35/77/17 33/73/17
f 36/79/18 37/81/18 35/77/18
f 38/83/19 39/85/19 37/81/19
f 40/87/20 41/89/20 39/85/20
f 42/91/21 43/93/21 41/89/21
f 44/95/22 45/97/22 43/93/22
f 46/99/23 47/101/23 45/97/23
f 48/103/24 49/105/24 47/101/24
f 50/107/25 51/109/25 49/105/25
f 52/111/26 53/113/26 51/109/26
f 54/115/27 55/117/27 53/113/27
f 56/119/28 57/121/28 55/117/28
f 58/123/29 59/125/29 57/121/29
f 60/127/30 61/129/30 59/125/30
f 38/84/31 22/50/31 6/17/31
f 62/132/32 63/133/32 61/129/32
f 64/136/33 1/2/33 63/133/33
f 31/70/34 47/102/34 63/134/34
f 2/4/1 4/9/1 3/7/1
f 4/10/2 6/15/2 5/13/2
f 6/16/3 8/20/3 7/18/3
f 8/20/4 10/24/4 9/22/4
f 10/24/5 12/28/5 11/26/5
f 12/28/6 14/32/6 13/30/6
f 14/32/7 16/36/7 15/34/7
f 16/36/8 18/40/8 17/38/8
f 18/40/9 20/44/9 19/42/9
f 20/44/10 22/48/10 21/46/10
f 22/49/11 24/54/11 23/52/11
f 24/55/12 26/59/12 25/57/12
f 26/59/13 28/63/13 27/61/13
f 28/63/14 30/67/14 29/65/14
f 30/67/15 32/71/15 31/69/15
f 32/71/16 34/75/16 33/73/16
f 34/75/17 36/79/17 35/77/17
f 36/79/18 38/83/18 37/81/18
f 38/83/19 40/87/19 39/85/19
f 40/87/20 42/91/20 41/89/20
f 42/91/21 44/95/21 43/93/21
f 44/95/22 46/99/22 45/97/22
f 46/99/23 48/103/23 47/101/23
f 48/103/24 50/107/24 49/105/24
f 50/107/25 52/111/25 51/109/25
f 52/111/26 54/115/26 53/113/26
f 54/115/27 56/119/27 55/117/27
f 56/119/28 58/123/28 57/121/28
f 58/123/29 60/127/29 59/125/29
f 60/127/30 62/132/30 61/129/30
f 6/17/31 4/11/31 2/5/31
f 2/5/31 64/135/31 62/131/31
f 62/131/31 60/128/31 58/124/31
f 58/124/31 56/120/31 54/116/31
f 54/116/31 52/112/31 50/108/31
f 50/108/31 48/104/31 46/100/31
f 46/100/31 44/96/31 42/92/31
f 42/92/31 40/88/31 38/84/31
f 38/84/31 36/80/31 34/76/31
f 34/76/31 32/72/31 30/68/31
f 30/68/31 28/64/31 26/60/31
f 26/60/31 24/56/31 22/50/31
f 22/50/31 20/45/31 18/41/31
f 18/41/31 16/37/31 14/33/31
f 14/33/31 12/29/31 10/25/31
f 10/25/31 8/21/31 6/17/31
f 6/17/31 2/5/31 62/131/31
f 62/131/31 58/124/31 54/116/31
f 54/116/31 50/108/31 46/100/31
f 46/100/31 42/92/31 38/84/31
f 38/84/31 34/76/31 30/68/31
f 30/68/31 26/60/31 22/50/31
f 22/50/31 18/41/31 14/33/31
f 14/33/31 10/25/31 6/17/31
f 6/17/31 62/131/31 54/116/31
f 54/116/31 46/100/31 38/84/31
f 38/84/31 30/68/31 22/50/31
f 22/50/31 14/33/31 6/17/31
f 6/17/31 54/116/31 38/84/31
f 62/132/32 64/136/32 63/133/32
f 64/136/33 2/6/33 1/2/33
f 63/134/34 1/3/34 3/8/34
f 3/8/34 5/14/34 7/19/34
f 7/19/34 9/23/34 11/27/34
f 11/27/34 13/31/34 15/35/34
f 15/35/35 17/39/35 19/43/35
f 19/43/34 21/47/34 23/53/34
f 23/53/34 25/58/34 27/62/34
f 27/62/34 29/66/34 31/70/34
f 31/70/34 33/74/34 35/78/34
f 35/78/34 37/82/34 39/86/34
f 39/86/34 41/90/34 43/94/34
f 43/94/34 45/98/34 47/102/34
f 47/102/36 49/106/36 51/110/36
f 51/110/34 53/114/34 55/118/34
f 55/118/34 57/122/34 59/126/34
f 59/126/34 61/130/34 63/134/34
f 63/134/34 3/8/34 7/19/34
f 7/19/34 11/27/34 15/35/34
f 15/35/34 19/43/34 23/53/34
f 23/53/34 27/62/34 31/70/34
f 31/70/34 35/78/34 39/86/34
f 39/86/34 43/94/34 47/102/34
f 47/102/34 51/110/34 55/118/34
f 55/118/34 59/126/34 63/134/34
f 63/134/34 7/19/34 15/35/34
f 15/35/34 23/53/34 31/70/34
f 31/70/34 39/86/34 47/102/34
f 47/102/34 55/118/34 63/134/34
f 63/134/34 15/35/34 31/70/34
