# Blender 3.4.1
# www.blender.org
mtllib 3.2.mtl
o 3.2
v -3.507692 0.020905 -0.429096
v -3.507692 0.048336 -0.429096
v -3.440151 0.020905 -0.422444
v -3.440151 0.048336 -0.422444
v -3.375206 0.020905 -0.402743
v -3.375206 0.048336 -0.402743
v -3.315351 0.020905 -0.370751
v -3.315351 0.048336 -0.370751
v -3.262888 0.020905 -0.327696
v -3.262888 0.048336 -0.327696
v -3.219833 0.020905 -0.275233
v -3.219833 0.048336 -0.275233
v -3.187841 0.020905 -0.215379
v -3.187841 0.048336 -0.215379
v -3.168140 0.020905 -0.150433
v -3.168140 0.048336 -0.150433
v -3.161488 0.020905 -0.082892
v -3.161488 0.048336 -0.082892
v -3.168140 0.020904 -0.015351
v -3.168140 0.048336 -0.015351
v -3.187841 0.020904 0.049594
v -3.187841 0.048336 0.049594
v -3.219833 0.020904 0.109448
v -3.219833 0.048336 0.109448
v -3.262888 0.020904 0.161911
v -3.262888 0.048336 0.161911
v -3.315351 0.020904 0.204966
v -3.315351 0.048336 0.204966
v -3.375206 0.020904 0.236959
v -3.375206 0.048336 0.236959
v -3.440151 0.020904 0.256660
v -3.440151 0.048336 0.256660
v -3.507692 0.020904 0.263312
v -3.507692 0.048336 0.263312
v -3.575233 0.020904 0.256660
v -3.575233 0.048336 0.256660
v -3.640178 0.020904 0.236959
v -3.640178 0.048336 0.236959
v -3.700032 0.020904 0.204966
v -3.700032 0.048336 0.204966
v -3.752495 0.020904 0.161911
v -3.752495 0.048336 0.161911
v -3.795550 0.020904 0.109448
v -3.795550 0.048336 0.109448
v -3.827543 0.020904 0.049594
v -3.827543 0.048336 0.049594
v -3.847244 0.020904 -0.015351
v -3.847244 0.048336 -0.015351
v -3.853896 0.020905 -0.082892
v -3.853896 0.048336 -0.082892
v -3.847244 0.020905 -0.150433
v -3.847244 0.048336 -0.150433
v -3.827543 0.020905 -0.215379
v -3.827543 0.048336 -0.215379
v -3.795550 0.020905 -0.275233
v -3.795550 0.048336 -0.275233
v -3.752495 0.020905 -0.327696
v -3.752495 0.048336 -0.327696
v -3.700032 0.020905 -0.370751
v -3.700032 0.048336 -0.370751
v -3.640178 0.020905 -0.402743
v -3.640178 0.048336 -0.402743
v -3.575233 0.020905 -0.422444
v -3.575233 0.048336 -0.422444
vn 0.0980 -0.0000 -0.9952
vn 0.2903 -0.0000 -0.9569
vn 0.4714 -0.0000 -0.8819
vn 0.6344 -0.0000 -0.7730
vn 0.7730 -0.0000 -0.6344
vn 0.8819 -0.0000 -0.4714
vn 0.9569 -0.0000 -0.2903
vn 0.9952 -0.0000 -0.0980
vn 0.9952 -0.0000 0.0980
vn 0.9569 -0.0000 0.2903
vn 0.8819 -0.0000 0.4714
vn 0.7730 -0.0000 0.6344
vn 0.6344 -0.0000 0.7730
vn 0.4714 -0.0000 0.8819
vn 0.2903 -0.0000 0.9569
vn 0.0980 -0.0000 0.9952
vn -0.0980 -0.0000 0.9952
vn -0.2903 -0.0000 0.9569
vn -0.4714 -0.0000 0.8819
vn -0.6344 -0.0000 0.7730
vn -0.7730 -0.0000 0.6344
vn -0.8819 -0.0000 0.4714
vn -0.9569 -0.0000 0.2903
vn -0.9952 -0.0000 0.0980
vn -0.9952 -0.0000 -0.0980
vn -0.9569 -0.0000 -0.2903
vn -0.8819 -0.0000 -0.4714
vn -0.7730 -0.0000 -0.6344
vn -0.6344 -0.0000 -0.7730
vn -0.4714 -0.0000 -0.8819
vn -0.0000 1.0000 -0.0000
vn -0.2903 -0.0000 -0.9569
vn -0.0980 -0.0000 -0.9952
vn -0.0000 -1.0000 -0.0000
vn 0.0001 -1.0000 -0.0000
vn -0.0001 -1.0000 -0.0000
vt 0.689340 0.520678
vt 0.297431 0.520678
vt 0.591363 0.516759
vt 0.689340 0.716633
vt 0.678702 0.804310
vt 0.297431 0.716633
vt 0.677093 0.520678
vt 0.609713 0.514952
vt 0.677093 0.716633
vt 0.678702 0.778950
vt 0.664846 0.520678
vt 0.627358 0.509599
vt 0.664846 0.716633
vt 0.675919 0.754076
vt 0.652599 0.520678
vt 0.643619 0.500908
vt 0.652599 0.716633
vt 0.670460 0.730646
vt 0.640352 0.520678
vt 0.657872 0.489210
vt 0.640352 0.716633
vt 0.662535 0.709560
vt 0.628105 0.520678
vt 0.669570 0.474957
vt 0.628105 0.716633
vt 0.652447 0.691627
vt 0.615857 0.520678
vt 0.678262 0.458695
vt 0.615857 0.716633
vt 0.640586 0.677537
vt 0.603610 0.520678
vt 0.683614 0.441051
vt 0.603610 0.716633
vt 0.627407 0.667832
vt 0.591363 0.520678
vt 0.685421 0.422701
vt 0.591363 0.716633
vt 0.613415 0.662884
vt 0.579116 0.520678
vt 0.683614 0.404351
vt 0.579116 0.716633
vt 0.599150 0.662884
vt 0.566869 0.520678
vt 0.678262 0.386706
vt 0.566869 0.716633
vt 0.585159 0.667832
vt 0.554622 0.520678
vt 0.669570 0.370445
vt 0.554622 0.716633
vt 0.571979 0.677537
vt 0.542374 0.520678
vt 0.657872 0.356192
vt 0.542374 0.716633
vt 0.560118 0.691627
vt 0.530127 0.520678
vt 0.643619 0.344494
vt 0.530127 0.716633
vt 0.550031 0.709559
vt 0.517880 0.520678
vt 0.627358 0.335802
vt 0.517880 0.716633
vt 0.542106 0.730646
vt 0.505633 0.520678
vt 0.609713 0.330450
vt 0.505633 0.716633
vt 0.536646 0.754076
vt 0.493386 0.520678
vt 0.591363 0.328643
vt 0.493386 0.716633
vt 0.533863 0.778949
vt 0.481139 0.520678
vt 0.573013 0.330450
vt 0.481139 0.716633
vt 0.533863 0.804310
vt 0.468892 0.520678
vt 0.555369 0.335802
vt 0.468892 0.716633
vt 0.536646 0.829183
vt 0.456644 0.520678
vt 0.539107 0.344494
vt 0.456644 0.716633
vt 0.542105 0.852614
vt 0.444397 0.520678
vt 0.524854 0.356192
vt 0.444397 0.716633
vt 0.550031 0.873700
vt 0.432150 0.520678
vt 0.513156 0.370445
vt 0.432150 0.716633
vt 0.560118 0.891633
vt 0.419903 0.520678
vt 0.504465 0.386706
vt 0.419903 0.716633
vt 0.571979 0.905723
vt 0.407656 0.520678
vt 0.499112 0.404351
vt 0.407656 0.716633
vt 0.585159 0.915428
vt 0.395409 0.520678
vt 0.497305 0.422701
vt 0.395409 0.716633
vt 0.599150 0.920375
vt 0.383161 0.520678
vt 0.499112 0.441051
vt 0.383161 0.716633
vt 0.613415 0.920375
vt 0.370914 0.520678
vt 0.504465 0.458695
vt 0.370914 0.716633
vt 0.627407 0.915428
vt 0.358667 0.520678
vt 0.513156 0.474957
vt 0.358667 0.716633
vt 0.640586 0.905723
vt 0.346420 0.520678
vt 0.524854 0.489210
vt 0.346420 0.716633
vt 0.652447 0.891633
vt 0.334173 0.520678
vt 0.539107 0.500908
vt 0.334173 0.716633
vt 0.662534 0.873700
vt 0.321926 0.520678
vt 0.555369 0.509599
vt 0.670460 0.852614
vt 0.321926 0.716633
vt 0.309678 0.520678
vt 0.573013 0.514952
vt 0.675919 0.829184
vt 0.309678 0.716633
s 0
usemtl NUMBERS.008
f 2/4/1 3/7/1 1/1/1
f 4/9/2 5/11/2 3/7/2
f 6/13/3 7/15/3 5/11/3
f 8/17/4 9/19/4 7/15/4
f 10/21/5 11/23/5 9/19/5
f 12/25/6 13/27/6 11/23/6
f 14/29/7 15/31/7 13/27/7
f 16/33/8 17/35/8 15/31/8
f 18/37/9 19/39/9 17/35/9
f 20/41/10 21/43/10 19/39/10
f 22/45/11 23/47/11 21/43/11
f 24/49/12 25/51/12 23/47/12
f 26/53/13 27/55/13 25/51/13
f 28/57/14 29/59/14 27/55/14
f 30/61/15 31/63/15 29/59/15
f 32/65/16 33/67/16 31/63/16
f 34/69/17 35/71/17 33/67/17
f 36/73/18 37/75/18 35/71/18
f 38/77/19 39/79/19 37/75/19
f 40/81/20 41/83/20 39/79/20
f 42/85/21 43/87/21 41/83/21
f 44/89/22 45/91/22 43/87/22
f 46/93/23 47/95/23 45/91/23
f 48/97/24 49/99/24 47/95/24
f 50/101/25 51/103/25 49/99/25
f 52/105/26 53/107/26 51/103/26
f 54/109/27 55/111/27 53/107/27
f 56/113/28 57/115/28 55/111/28
f 58/117/29 59/119/29 57/115/29
f 60/121/30 61/123/30 59/119/30
f 38/78/31 22/46/31 6/14/31
f 62/126/32 63/127/32 61/123/32
f 64/130/33 1/2/33 63/127/33
f 31/64/34 47/96/34 63/128/34
f 2/4/1 4/9/1 3/7/1
f 4/9/2 6/13/2 5/11/2
f 6/13/3 8/17/3 7/15/3
f 8/17/4 10/21/4 9/19/4
f 10/21/5 12/25/5 11/23/5
f 12/25/6 14/29/6 13/27/6
f 14/29/7 16/33/7 15/31/7
f 16/33/8 18/37/8 17/35/8
f 18/37/9 20/41/9 19/39/9
f 20/41/10 22/45/10 21/43/10
f 22/45/11 24/49/11 23/47/11
f 24/49/12 26/53/12 25/51/12
f 26/53/13 28/57/13 27/55/13
f 28/57/14 30/61/14 29/59/14
f 30/61/15 32/65/15 31/63/15
f 32/65/16 34/69/16 33/67/16
f 34/69/17 36/73/17 35/71/17
f 36/73/18 38/77/18 37/75/18
f 38/77/19 40/81/19 39/79/19
f 40/81/20 42/85/20 41/83/20
f 42/85/21 44/89/21 43/87/21
f 44/89/22 46/93/22 45/91/22
f 46/93/23 48/97/23 47/95/23
f 48/97/24 50/101/24 49/99/24
f 50/101/25 52/105/25 51/103/25
f 52/105/26 54/109/26 53/107/26
f 54/109/27 56/113/27 55/111/27
f 56/113/28 58/117/28 57/115/28
f 58/117/29 60/121/29 59/119/29
f 60/121/30 62/126/30 61/123/30
f 6/14/31 4/10/31 2/5/31
f 2/5/31 64/129/31 62/125/31
f 62/125/31 60/122/31 58/118/31
f 58/118/31 56/114/31 54/110/31
f 54/110/31 52/106/31 50/102/31
f 50/102/31 48/98/31 46/94/31
f 46/94/31 44/90/31 42/86/31
f 42/86/31 40/82/31 38/78/31
f 38/78/31 36/74/31 34/70/31
f 34/70/31 32/66/31 30/62/31
f 30/62/31 28/58/31 26/54/31
f 26/54/31 24/50/31 22/46/31
f 22/46/31 20/42/31 18/38/31
f 18/38/31 16/34/31 14/30/31
f 14/30/31 12/26/31 10/22/31
f 10/22/31 8/18/31 6/14/31
f 6/14/31 2/5/31 62/125/31
f 62/125/31 58/118/31 54/110/31
f 54/110/31 50/102/31 46/94/31
f 46/94/31 42/86/31 38/78/31
f 38/78/31 34/70/31 30/62/31
f 30/62/31 26/54/31 22/46/31
f 22/46/31 18/38/31 14/30/31
f 14/30/31 10/22/31 6/14/31
f 6/14/31 62/125/31 54/110/31
f 54/110/31 46/94/31 38/78/31
f 38/78/31 30/62/31 22/46/31
f 22/46/31 14/30/31 6/14/31
f 6/14/31 54/110/31 38/78/31
f 62/126/32 64/130/32 63/127/32
f 64/130/33 2/6/33 1/2/33
f 63/128/34 1/3/34 3/8/34
f 3/8/34 5/12/34 7/16/34
f 7/16/34 9/20/34 11/24/34
f 11/24/34 13/28/34 15/32/34
f 15/32/35 17/36/35 19/40/35
f 19/40/34 21/44/34 23/48/34
f 23/48/34 25/52/34 27/56/34
f 27/56/34 29/60/34 31/64/34
f 31/64/34 33/68/34 35/72/34
f 35/72/34 37/76/34 39/80/34
f 39/80/34 41/84/34 43/88/34
f 43/88/34 45/92/34 47/96/34
f 47/96/36 49/100/36 51/104/36
f 51/104/34 53/108/34 55/112/34
f 55/112/34 57/116/34 59/120/34
f 59/120/34 61/124/34 63/128/34
f 63/128/34 3/8/34 7/16/34
f 7/16/34 11/24/34 15/32/34
f 15/32/34 19/40/34 23/48/34
f 23/48/34 27/56/34 31/64/34
f 31/64/34 35/72/34 39/80/34
f 39/80/34 43/88/34 47/96/34
f 47/96/34 51/104/34 55/112/34
f 55/112/34 59/120/34 63/128/34
f 63/128/34 7/16/34 15/32/34
f 15/32/34 23/48/34 31/64/34
f 31/64/34 39/80/34 47/96/34
f 47/96/34 55/112/34 63/128/34
f 63/128/34 15/32/34 31/64/34
