# Blender 3.4.1
# www.blender.org
mtllib 6.1.mtl
o 6.1
v 2.534022 0.020905 1.229636
v 2.534022 0.048336 1.229636
v 2.601563 0.020905 1.236289
v 2.601563 0.048336 1.236289
v 2.666508 0.020905 1.255990
v 2.666508 0.048336 1.255990
v 2.726362 0.020905 1.287982
v 2.726362 0.048336 1.287982
v 2.778825 0.020905 1.331037
v 2.778825 0.048336 1.331037
v 2.821880 0.020905 1.383500
v 2.821880 0.048336 1.383500
v 2.853873 0.020905 1.443354
v 2.853873 0.048336 1.443354
v 2.873574 0.020905 1.508300
v 2.873574 0.048336 1.508300
v 2.880226 0.020905 1.575841
v 2.880226 0.048336 1.575841
v 2.873574 0.020904 1.643382
v 2.873574 0.048336 1.643382
v 2.853873 0.020904 1.708327
v 2.853873 0.048336 1.708327
v 2.821880 0.020904 1.768181
v 2.821880 0.048336 1.768181
v 2.778825 0.020904 1.820644
v 2.778825 0.048336 1.820644
v 2.726362 0.020904 1.863699
v 2.726362 0.048336 1.863699
v 2.666508 0.020904 1.895692
v 2.666508 0.048336 1.895692
v 2.601563 0.020904 1.915392
v 2.601563 0.048336 1.915392
v 2.534022 0.020904 1.922045
v 2.534022 0.048336 1.922045
v 2.466481 0.020904 1.915392
v 2.466481 0.048336 1.915392
v 2.401536 0.020904 1.895692
v 2.401536 0.048336 1.895692
v 2.341681 0.020904 1.863699
v 2.341681 0.048336 1.863699
v 2.289218 0.020904 1.820644
v 2.289218 0.048336 1.820644
v 2.246163 0.020904 1.768181
v 2.246163 0.048336 1.768181
v 2.214171 0.020904 1.708327
v 2.214171 0.048336 1.708327
v 2.194470 0.020904 1.643382
v 2.194470 0.048336 1.643382
v 2.187818 0.020905 1.575841
v 2.187818 0.048336 1.575841
v 2.194470 0.020905 1.508300
v 2.194470 0.048336 1.508300
v 2.214171 0.020905 1.443354
v 2.214171 0.048336 1.443354
v 2.246163 0.020905 1.383500
v 2.246163 0.048336 1.383500
v 2.289218 0.020905 1.331037
v 2.289218 0.048336 1.331037
v 2.341681 0.020905 1.287982
v 2.341681 0.048336 1.287982
v 2.401536 0.020905 1.255990
v 2.401536 0.048336 1.255990
v 2.466481 0.020905 1.236289
v 2.466481 0.048336 1.236289
vn 0.0980 -0.0000 -0.9952
vn 0.2903 -0.0000 -0.9569
vn 0.4714 -0.0000 -0.8819
vn 0.6344 -0.0000 -0.7730
vn 0.7730 -0.0000 -0.6344
vn 0.8819 -0.0000 -0.4714
vn 0.9569 -0.0000 -0.2903
vn 0.9952 -0.0000 -0.0980
vn 0.9952 -0.0000 0.0980
vn 0.9569 -0.0000 0.2903
vn 0.8819 -0.0000 0.4714
vn 0.7730 -0.0000 0.6344
vn 0.6344 -0.0000 0.7730
vn 0.4714 -0.0000 0.8819
vn 0.2903 -0.0000 0.9569
vn 0.0980 -0.0000 0.9952
vn -0.0980 -0.0000 0.9952
vn -0.2903 -0.0000 0.9569
vn -0.4714 -0.0000 0.8819
vn -0.6344 -0.0000 0.7730
vn -0.7730 -0.0000 0.6344
vn -0.8819 -0.0000 0.4714
vn -0.9569 -0.0000 0.2903
vn -0.9952 -0.0000 0.0980
vn -0.9952 -0.0000 -0.0980
vn -0.9569 -0.0000 -0.2903
vn -0.8819 -0.0000 -0.4714
vn -0.7730 -0.0000 -0.6344
vn -0.6344 -0.0000 -0.7730
vn -0.4714 -0.0000 -0.8819
vn -0.0000 1.0000 -0.0000
vn -0.2903 -0.0000 -0.9569
vn -0.0980 -0.0000 -0.9952
vn -0.0000 -1.0000 -0.0000
vn 0.0001 -1.0000 -0.0000
vn -0.0001 -1.0000 -0.0000
vt 0.688554 0.503114
vt 0.311446 0.503114
vt 0.594277 0.499343
vt 0.688554 0.691668
vt 0.691302 0.204112
vt 0.311446 0.691668
vt 0.676769 0.503114
vt 0.611934 0.497604
vt 0.676769 0.691668
vt 0.691302 0.184445
vt 0.664984 0.503114
vt 0.628912 0.492454
vt 0.664984 0.691668
vt 0.689144 0.165156
vt 0.653200 0.503114
vt 0.644559 0.484091
vt 0.653200 0.691668
vt 0.684910 0.146985
vt 0.641415 0.503114
vt 0.658274 0.472835
vt 0.641415 0.691668
vt 0.678764 0.130633
vt 0.629631 0.503114
vt 0.669530 0.459120
vt 0.629631 0.691668
vt 0.670942 0.116726
vt 0.617846 0.503114
vt 0.677893 0.443473
vt 0.617846 0.691668
vt 0.661743 0.105799
vt 0.606061 0.503114
vt 0.683043 0.426495
vt 0.606061 0.691668
vt 0.651523 0.098273
vt 0.594277 0.503114
vt 0.684783 0.408838
vt 0.594277 0.691668
vt 0.640672 0.094436
vt 0.582492 0.503114
vt 0.683043 0.391181
vt 0.582492 0.691668
vt 0.629610 0.094436
vt 0.570708 0.503114
vt 0.677893 0.374203
vt 0.570708 0.691668
vt 0.618759 0.098273
vt 0.558923 0.503114
vt 0.669530 0.358555
vt 0.558923 0.691668
vt 0.608539 0.105799
vt 0.547138 0.503114
vt 0.658274 0.344840
vt 0.547138 0.691668
vt 0.599340 0.116726
vt 0.535354 0.503114
vt 0.644559 0.333585
vt 0.535354 0.691668
vt 0.591518 0.130633
vt 0.523569 0.503114
vt 0.628912 0.325221
vt 0.523569 0.691668
vt 0.585371 0.146985
vt 0.511785 0.503114
vt 0.611934 0.320071
vt 0.511785 0.691668
vt 0.581138 0.165155
vt 0.500000 0.503114
vt 0.594277 0.318332
vt 0.500000 0.691668
vt 0.578980 0.184445
vt 0.488215 0.503114
vt 0.576620 0.320071
vt 0.488215 0.691668
vt 0.578980 0.204112
vt 0.476431 0.503114
vt 0.559642 0.325221
vt 0.476431 0.691668
vt 0.581138 0.223401
vt 0.464646 0.503114
vt 0.543994 0.333585
vt 0.464646 0.691668
vt 0.585371 0.241571
vt 0.452862 0.503114
vt 0.530279 0.344840
vt 0.452862 0.691668
vt 0.591518 0.257924
vt 0.441077 0.503114
vt 0.519024 0.358555
vt 0.441077 0.691668
vt 0.599340 0.271831
vt 0.429292 0.503114
vt 0.510660 0.374203
vt 0.429292 0.691668
vt 0.608539 0.282757
vt 0.417508 0.503114
vt 0.505510 0.391181
vt 0.417508 0.691668
vt 0.618759 0.290284
vt 0.405723 0.503114
vt 0.503771 0.408838
vt 0.405723 0.691668
vt 0.629609 0.294121
vt 0.393939 0.503114
vt 0.505510 0.426495
vt 0.393939 0.691668
vt 0.640672 0.294121
vt 0.382154 0.503114
vt 0.510660 0.443473
vt 0.382154 0.691668
vt 0.651522 0.290284
vt 0.370369 0.503114
vt 0.519024 0.459120
vt 0.370369 0.691668
vt 0.661743 0.282757
vt 0.358585 0.503114
vt 0.530279 0.472835
vt 0.358585 0.691668
vt 0.670942 0.271831
vt 0.346800 0.503114
vt 0.543994 0.484091
vt 0.346800 0.691668
vt 0.678764 0.257924
vt 0.335016 0.503114
vt 0.559642 0.492454
vt 0.684910 0.241571
vt 0.335016 0.691668
vt 0.323231 0.503114
vt 0.576620 0.497604
vt 0.689144 0.223401
vt 0.323231 0.691668
s 0
usemtl NUMBERS
f 2/4/1 3/7/1 1/1/1
f 4/9/2 5/11/2 3/7/2
f 6/13/3 7/15/3 5/11/3
f 8/17/4 9/19/4 7/15/4
f 10/21/5 11/23/5 9/19/5
f 12/25/6 13/27/6 11/23/6
f 14/29/7 15/31/7 13/27/7
f 16/33/8 17/35/8 15/31/8
f 18/37/9 19/39/9 17/35/9
f 20/41/10 21/43/10 19/39/10
f 22/45/11 23/47/11 21/43/11
f 24/49/12 25/51/12 23/47/12
f 26/53/13 27/55/13 25/51/13
f 28/57/14 29/59/14 27/55/14
f 30/61/15 31/63/15 29/59/15
f 32/65/16 33/67/16 31/63/16
f 34/69/17 35/71/17 33/67/17
f 36/73/18 37/75/18 35/71/18
f 38/77/19 39/79/19 37/75/19
f 40/81/20 41/83/20 39/79/20
f 42/85/21 43/87/21 41/83/21
f 44/89/22 45/91/22 43/87/22
f 46/93/23 47/95/23 45/91/23
f 48/97/24 49/99/24 47/95/24
f 50/101/25 51/103/25 49/99/25
f 52/105/26 53/107/26 51/103/26
f 54/109/27 55/111/27 53/107/27
f 56/113/28 57/115/28 55/111/28
f 58/117/29 59/119/29 57/115/29
f 60/121/30 61/123/30 59/119/30
f 38/78/31 22/46/31 6/14/31
f 62/126/32 63/127/32 61/123/32
f 64/130/33 1/2/33 63/127/33
f 31/64/34 47/96/34 63/128/34
f 2/4/1 4/9/1 3/7/1
f 4/9/2 6/13/2 5/11/2
f 6/13/3 8/17/3 7/15/3
f 8/17/4 10/21/4 9/19/4
f 10/21/5 12/25/5 11/23/5
f 12/25/6 14/29/6 13/27/6
f 14/29/7 16/33/7 15/31/7
f 16/33/8 18/37/8 17/35/8
f 18/37/9 20/41/9 19/39/9
f 20/41/10 22/45/10 21/43/10
f 22/45/11 24/49/11 23/47/11
f 24/49/12 26/53/12 25/51/12
f 26/53/13 28/57/13 27/55/13
f 28/57/14 30/61/14 29/59/14
f 30/61/15 32/65/15 31/63/15
f 32/65/16 34/69/16 33/67/16
f 34/69/17 36/73/17 35/71/17
f 36/73/18 38/77/18 37/75/18
f 38/77/19 40/81/19 39/79/19
f 40/81/20 42/85/20 41/83/20
f 42/85/21 44/89/21 43/87/21
f 44/89/22 46/93/22 45/91/22
f 46/93/23 48/97/23 47/95/23
f 48/97/24 50/101/24 49/99/24
f 50/101/25 52/105/25 51/103/25
f 52/105/26 54/109/26 53/107/26
f 54/109/27 56/113/27 55/111/27
f 56/113/28 58/117/28 57/115/28
f 58/117/29 60/121/29 59/119/29
f 60/121/30 62/126/30 61/123/30
f 6/14/31 4/10/31 2/5/31
f 2/5/31 64/129/31 62/125/31
f 62/125/31 60/122/31 58/118/31
f 58/118/31 56/114/31 54/110/31
f 54/110/31 52/106/31 50/102/31
f 50/102/31 48/98/31 46/94/31
f 46/94/31 44/90/31 42/86/31
f 42/86/31 40/82/31 38/78/31
f 38/78/31 36/74/31 34/70/31
f 34/70/31 32/66/31 30/62/31
f 30/62/31 28/58/31 26/54/31
f 26/54/31 24/50/31 22/46/31
f 22/46/31 20/42/31 18/38/31
f 18/38/31 16/34/31 14/30/31
f 14/30/31 12/26/31 10/22/31
f 10/22/31 8/18/31 6/14/31
f 6/14/31 2/5/31 62/125/31
f 62/125/31 58/118/31 54/110/31
f 54/110/31 50/102/31 46/94/31
f 46/94/31 42/86/31 38/78/31
f 38/78/31 34/70/31 30/62/31
f 30/62/31 26/54/31 22/46/31
f 22/46/31 18/38/31 14/30/31
f 14/30/31 10/22/31 6/14/31
f 6/14/31 62/125/31 54/110/31
f 54/110/31 46/94/31 38/78/31
f 38/78/31 30/62/31 22/46/31
f 22/46/31 14/30/31 6/14/31
f 6/14/31 54/110/31 38/78/31
f 62/126/32 64/130/32 63/127/32
f 64/130/33 2/6/33 1/2/33
f 63/128/34 1/3/34 3/8/34
f 3/8/34 5/12/34 7/16/34
f 7/16/34 9/20/34 11/24/34
f 11/24/34 13/28/34 15/32/34
f 15/32/35 17/36/35 19/40/35
f 19/40/34 21/44/34 23/48/34
f 23/48/34 25/52/34 27/56/34
f 27/56/34 29/60/34 31/64/34
f 31/64/34 33/68/34 35/72/34
f 35/72/34 37/76/34 39/80/34
f 39/80/34 41/84/34 43/88/34
f 43/88/34 45/92/34 47/96/34
f 47/96/36 49/100/36 51/104/36
f 51/104/34 53/108/34 55/112/34
f 55/112/34 57/116/34 59/120/34
f 59/120/34 61/124/34 63/128/34
f 63/128/34 3/8/34 7/16/34
f 7/16/34 11/24/34 15/32/34
f 15/32/34 19/40/34 23/48/34
f 23/48/34 27/56/34 31/64/34
f 31/64/34 35/72/34 39/80/34
f 39/80/34 43/88/34 47/96/34
f 47/96/34 51/104/34 55/112/34
f 55/112/34 59/120/34 63/128/34
f 63/128/34 7/16/34 15/32/34
f 15/32/34 23/48/34 31/64/34
f 31/64/34 39/80/34 47/96/34
f 47/96/34 55/112/34 63/128/34
f 63/128/34 15/32/34 31/64/34
