# Blender 3.4.1
# www.blender.org
mtllib 8.1.mtl
o 8.1
v 2.576261 0.020905 -1.818935
v 2.576261 0.048336 -1.818935
v 2.643801 0.020905 -1.812283
v 2.643801 0.048336 -1.812283
v 2.708747 0.020905 -1.792582
v 2.708747 0.048336 -1.792582
v 2.768601 0.020905 -1.760589
v 2.768601 0.048336 -1.760589
v 2.821064 0.020905 -1.717534
v 2.821064 0.048336 -1.717534
v 2.864119 0.020905 -1.665071
v 2.864119 0.048336 -1.665071
v 2.896112 0.020905 -1.605217
v 2.896112 0.048336 -1.605217
v 2.915812 0.020905 -1.540272
v 2.915812 0.048336 -1.540272
v 2.922465 0.020905 -1.472731
v 2.922465 0.048336 -1.472731
v 2.915812 0.020904 -1.405190
v 2.915812 0.048336 -1.405190
v 2.896112 0.020904 -1.340244
v 2.896112 0.048336 -1.340244
v 2.864119 0.020904 -1.280390
v 2.864119 0.048336 -1.280390
v 2.821064 0.020904 -1.227927
v 2.821064 0.048336 -1.227927
v 2.768601 0.020904 -1.184873
v 2.768601 0.048336 -1.184873
v 2.708747 0.020904 -1.152880
v 2.708747 0.048336 -1.152880
v 2.643801 0.020904 -1.133179
v 2.643801 0.048336 -1.133179
v 2.576261 0.020904 -1.126527
v 2.576261 0.048336 -1.126527
v 2.508720 0.020904 -1.133179
v 2.508720 0.048336 -1.133179
v 2.443774 0.020904 -1.152880
v 2.443774 0.048336 -1.152880
v 2.383920 0.020904 -1.184873
v 2.383920 0.048336 -1.184873
v 2.331457 0.020904 -1.227927
v 2.331457 0.048336 -1.227927
v 2.288402 0.020904 -1.280390
v 2.288402 0.048336 -1.280390
v 2.256409 0.020904 -1.340244
v 2.256409 0.048336 -1.340244
v 2.236709 0.020904 -1.405190
v 2.236709 0.048336 -1.405190
v 2.230056 0.020905 -1.472731
v 2.230056 0.048336 -1.472731
v 2.236709 0.020905 -1.540272
v 2.236709 0.048336 -1.540272
v 2.256409 0.020905 -1.605217
v 2.256409 0.048336 -1.605217
v 2.288402 0.020905 -1.665071
v 2.288402 0.048336 -1.665071
v 2.331457 0.020905 -1.717534
v 2.331457 0.048336 -1.717534
v 2.383920 0.020905 -1.760589
v 2.383920 0.048336 -1.760589
v 2.443774 0.020905 -1.792582
v 2.443774 0.048336 -1.792582
v 2.508720 0.020905 -1.812283
v 2.508720 0.048336 -1.812283
vn 0.0980 -0.0000 -0.9952
vn 0.2903 -0.0000 -0.9569
vn 0.4714 -0.0000 -0.8819
vn 0.6344 -0.0000 -0.7730
vn 0.7730 -0.0000 -0.6344
vn 0.8819 -0.0000 -0.4714
vn 0.9569 -0.0000 -0.2903
vn 0.9952 -0.0000 -0.0980
vn 0.9952 -0.0000 0.0980
vn 0.9569 -0.0000 0.2903
vn 0.8819 -0.0000 0.4714
vn 0.7730 -0.0000 0.6344
vn 0.6344 -0.0000 0.7730
vn 0.4714 -0.0000 0.8819
vn 0.2903 -0.0000 0.9569
vn 0.0980 -0.0000 0.9952
vn -0.0980 -0.0000 0.9952
vn -0.2903 -0.0000 0.9569
vn -0.4714 -0.0000 0.8819
vn -0.6344 -0.0000 0.7730
vn -0.7730 -0.0000 0.6344
vn -0.8819 -0.0000 0.4714
vn -0.9569 -0.0000 0.2903
vn -0.9952 -0.0000 0.0980
vn -0.9952 -0.0000 -0.0980
vn -0.9569 -0.0000 -0.2903
vn -0.8819 -0.0000 -0.4714
vn -0.7730 -0.0000 -0.6344
vn -0.6344 -0.0000 -0.7730
vn -0.4714 -0.0000 -0.8819
vn -0.0000 1.0000 -0.0000
vn -0.2903 -0.0000 -0.9569
vn -0.0980 -0.0000 -0.9952
vn -0.0000 -1.0000 -0.0000
vn 0.0001 -1.0000 -0.0000
vn -0.0001 -1.0000 -0.0000
vt 0.684655 0.514813
vt 0.295503 0.514813
vt 0.587367 0.510921
vt 0.684655 0.709389
vt 0.918718 0.211014
vt 0.295503 0.709389
vt 0.672494 0.514813
vt 0.605588 0.509126
vt 0.672494 0.709389
vt 0.918718 0.189301
vt 0.660333 0.514813
vt 0.623108 0.503812
vt 0.660333 0.709389
vt 0.916336 0.168006
vt 0.648172 0.514813
vt 0.639255 0.495181
vt 0.648172 0.709389
vt 0.911662 0.147946
vt 0.636011 0.514813
vt 0.653408 0.483566
vt 0.636011 0.709389
vt 0.904876 0.129892
vt 0.623850 0.514813
vt 0.665023 0.469413
vt 0.623850 0.709389
vt 0.896240 0.114539
vt 0.611689 0.514813
vt 0.673654 0.453266
vt 0.611689 0.709389
vt 0.886085 0.102476
vt 0.599528 0.514813
vt 0.678968 0.435746
vt 0.599528 0.709389
vt 0.874801 0.094166
vt 0.587367 0.514813
vt 0.680763 0.417525
vt 0.587367 0.709389
vt 0.862822 0.089930
vt 0.575206 0.514813
vt 0.678968 0.399304
vt 0.575206 0.709389
vt 0.850609 0.089930
vt 0.563045 0.514813
vt 0.673654 0.381784
vt 0.563045 0.709389
vt 0.838630 0.094166
vt 0.550884 0.514813
vt 0.665023 0.365637
vt 0.550884 0.709389
vt 0.827346 0.102475
vt 0.538723 0.514813
vt 0.653408 0.351483
vt 0.538723 0.709389
vt 0.817191 0.114538
vt 0.526562 0.514813
vt 0.639255 0.339868
vt 0.526562 0.709389
vt 0.808555 0.129892
vt 0.514401 0.514813
vt 0.623108 0.331238
vt 0.514401 0.709389
vt 0.801769 0.147945
vt 0.502240 0.514813
vt 0.605588 0.325923
vt 0.502240 0.709389
vt 0.797096 0.168005
vt 0.490079 0.514813
vt 0.587367 0.324128
vt 0.490079 0.709389
vt 0.794713 0.189301
vt 0.477918 0.514813
vt 0.569146 0.325923
vt 0.477918 0.709389
vt 0.794713 0.211014
vt 0.465757 0.514813
vt 0.551625 0.331238
vt 0.465757 0.709389
vt 0.797095 0.232310
vt 0.453596 0.514813
vt 0.535478 0.339868
vt 0.453596 0.709389
vt 0.801769 0.252370
vt 0.441435 0.514813
vt 0.521325 0.351483
vt 0.441435 0.709389
vt 0.808555 0.270423
vt 0.429274 0.514813
vt 0.509710 0.365637
vt 0.429274 0.709389
vt 0.817191 0.285777
vt 0.417113 0.514813
vt 0.501080 0.381784
vt 0.417113 0.709389
vt 0.827346 0.297840
vt 0.404952 0.514813
vt 0.495765 0.399304
vt 0.404952 0.709389
vt 0.838630 0.306149
vt 0.392791 0.514813
vt 0.493970 0.417525
vt 0.392791 0.709389
vt 0.850609 0.310385
vt 0.380630 0.514813
vt 0.495765 0.435746
vt 0.380630 0.709389
vt 0.862822 0.310385
vt 0.368469 0.514813
vt 0.501080 0.453266
vt 0.368469 0.709389
vt 0.874801 0.306149
vt 0.356308 0.514813
vt 0.509710 0.469413
vt 0.356308 0.709389
vt 0.886085 0.297840
vt 0.344147 0.514813
vt 0.521325 0.483566
vt 0.344147 0.709389
vt 0.896240 0.285777
vt 0.331986 0.514813
vt 0.535478 0.495181
vt 0.331986 0.709389
vt 0.904876 0.270424
vt 0.319825 0.514813
vt 0.551625 0.503812
vt 0.911662 0.252370
vt 0.319825 0.709389
vt 0.307664 0.514813
vt 0.569146 0.509126
vt 0.916336 0.232310
vt 0.307664 0.709389
s 0
usemtl NUMBERS
f 2/4/1 3/7/1 1/1/1
f 4/9/2 5/11/2 3/7/2
f 6/13/3 7/15/3 5/11/3
f 8/17/4 9/19/4 7/15/4
f 10/21/5 11/23/5 9/19/5
f 12/25/6 13/27/6 11/23/6
f 14/29/7 15/31/7 13/27/7
f 16/33/8 17/35/8 15/31/8
f 18/37/9 19/39/9 17/35/9
f 20/41/10 21/43/10 19/39/10
f 22/45/11 23/47/11 21/43/11
f 24/49/12 25/51/12 23/47/12
f 26/53/13 27/55/13 25/51/13
f 28/57/14 29/59/14 27/55/14
f 30/61/15 31/63/15 29/59/15
f 32/65/16 33/67/16 31/63/16
f 34/69/17 35/71/17 33/67/17
f 36/73/18 37/75/18 35/71/18
f 38/77/19 39/79/19 37/75/19
f 40/81/20 41/83/20 39/79/20
f 42/85/21 43/87/21 41/83/21
f 44/89/22 45/91/22 43/87/22
f 46/93/23 47/95/23 45/91/23
f 48/97/24 49/99/24 47/95/24
f 50/101/25 51/103/25 49/99/25
f 52/105/26 53/107/26 51/103/26
f 54/109/27 55/111/27 53/107/27
f 56/113/28 57/115/28 55/111/28
f 58/117/29 59/119/29 57/115/29
f 60/121/30 61/123/30 59/119/30
f 38/78/31 22/46/31 6/14/31
f 62/126/32 63/127/32 61/123/32
f 64/130/33 1/2/33 63/127/33
f 31/64/34 47/96/34 63/128/34
f 2/4/1 4/9/1 3/7/1
f 4/9/2 6/13/2 5/11/2
f 6/13/3 8/17/3 7/15/3
f 8/17/4 10/21/4 9/19/4
f 10/21/5 12/25/5 11/23/5
f 12/25/6 14/29/6 13/27/6
f 14/29/7 16/33/7 15/31/7
f 16/33/8 18/37/8 17/35/8
f 18/37/9 20/41/9 19/39/9
f 20/41/10 22/45/10 21/43/10
f 22/45/11 24/49/11 23/47/11
f 24/49/12 26/53/12 25/51/12
f 26/53/13 28/57/13 27/55/13
f 28/57/14 30/61/14 29/59/14
f 30/61/15 32/65/15 31/63/15
f 32/65/16 34/69/16 33/67/16
f 34/69/17 36/73/17 35/71/17
f 36/73/18 38/77/18 37/75/18
f 38/77/19 40/81/19 39/79/19
f 40/81/20 42/85/20 41/83/20
f 42/85/21 44/89/21 43/87/21
f 44/89/22 46/93/22 45/91/22
f 46/93/23 48/97/23 47/95/23
f 48/97/24 50/101/24 49/99/24
f 50/101/25 52/105/25 51/103/25
f 52/105/26 54/109/26 53/107/26
f 54/109/27 56/113/27 55/111/27
f 56/113/28 58/117/28 57/115/28
f 58/117/29 60/121/29 59/119/29
f 60/121/30 62/126/30 61/123/30
f 6/14/31 4/10/31 2/5/31
f 2/5/31 64/129/31 62/125/31
f 62/125/31 60/122/31 58/118/31
f 58/118/31 56/114/31 54/110/31
f 54/110/31 52/106/31 50/102/31
f 50/102/31 48/98/31 46/94/31
f 46/94/31 44/90/31 42/86/31
f 42/86/31 40/82/31 38/78/31
f 38/78/31 36/74/31 34/70/31
f 34/70/31 32/66/31 30/62/31
f 30/62/31 28/58/31 26/54/31
f 26/54/31 24/50/31 22/46/31
f 22/46/31 20/42/31 18/38/31
f 18/38/31 16/34/31 14/30/31
f 14/30/31 12/26/31 10/22/31
f 10/22/31 8/18/31 6/14/31
f 6/14/31 2/5/31 62/125/31
f 62/125/31 58/118/31 54/110/31
f 54/110/31 50/102/31 46/94/31
f 46/94/31 42/86/31 38/78/31
f 38/78/31 34/70/31 30/62/31
f 30/62/31 26/54/31 22/46/31
f 22/46/31 18/38/31 14/30/31
f 14/30/31 10/22/31 6/14/31
f 6/14/31 62/125/31 54/110/31
f 54/110/31 46/94/31 38/78/31
f 38/78/31 30/62/31 22/46/31
f 22/46/31 14/30/31 6/14/31
f 6/14/31 54/110/31 38/78/31
f 62/126/32 64/130/32 63/127/32
f 64/130/33 2/6/33 1/2/33
f 63/128/34 1/3/34 3/8/34
f 3/8/34 5/12/34 7/16/34
f 7/16/34 9/20/34 11/24/34
f 11/24/34 13/28/34 15/32/34
f 15/32/35 17/36/35 19/40/35
f 19/40/34 21/44/34 23/48/34
f 23/48/34 25/52/34 27/56/34
f 27/56/34 29/60/34 31/64/34
f 31/64/34 33/68/34 35/72/34
f 35/72/34 37/76/34 39/80/34
f 39/80/34 41/84/34 43/88/34
f 43/88/34 45/92/34 47/96/34
f 47/96/36 49/100/36 51/104/36
f 51/104/34 53/108/34 55/112/34
f 55/112/34 57/116/34 59/120/34
f 59/120/34 61/124/34 63/128/34
f 63/128/34 3/8/34 7/16/34
f 7/16/34 11/24/34 15/32/34
f 15/32/34 19/40/34 23/48/34
f 23/48/34 27/56/34 31/64/34
f 31/64/34 35/72/34 39/80/34
f 39/80/34 43/88/34 47/96/34
f 47/96/34 51/104/34 55/112/34
f 55/112/34 59/120/34 63/128/34
f 63/128/34 7/16/34 15/32/34
f 15/32/34 23/48/34 31/64/34
f 31/64/34 39/80/34 47/96/34
f 47/96/34 55/112/34 63/128/34
f 63/128/34 15/32/34 31/64/34
