# Blender 3.4.1
# www.blender.org
mtllib 9.1.mtl
o 9.1
v -1.671576 0.020905 2.587636
v -1.671576 0.048336 2.587636
v -1.604035 0.020905 2.594289
v -1.604035 0.048336 2.594289
v -1.539089 0.020905 2.613989
v -1.539089 0.048336 2.613989
v -1.479235 0.020905 2.645982
v -1.479235 0.048336 2.645982
v -1.426772 0.020905 2.689037
v -1.426772 0.048336 2.689037
v -1.383717 0.020905 2.741500
v -1.383717 0.048336 2.741500
v -1.351725 0.020905 2.801354
v -1.351725 0.048336 2.801354
v -1.332024 0.020905 2.866300
v -1.332024 0.048336 2.866300
v -1.325372 0.020905 2.933841
v -1.325372 0.048336 2.933841
v -1.332024 0.020904 3.001381
v -1.332024 0.048336 3.001381
v -1.351725 0.020904 3.066327
v -1.351725 0.048336 3.066327
v -1.383717 0.020904 3.126181
v -1.383717 0.048336 3.126181
v -1.426772 0.020904 3.178644
v -1.426772 0.048336 3.178644
v -1.479235 0.020904 3.221699
v -1.479235 0.048336 3.221699
v -1.539089 0.020904 3.253692
v -1.539089 0.048336 3.253692
v -1.604035 0.020904 3.273392
v -1.604035 0.048336 3.273392
v -1.671576 0.020904 3.280045
v -1.671576 0.048336 3.280045
v -1.739117 0.020904 3.273392
v -1.739117 0.048336 3.273392
v -1.804062 0.020904 3.253692
v -1.804062 0.048336 3.253692
v -1.863916 0.020904 3.221699
v -1.863916 0.048336 3.221699
v -1.916379 0.020904 3.178644
v -1.916379 0.048336 3.178644
v -1.959434 0.020904 3.126181
v -1.959434 0.048336 3.126181
v -1.991427 0.020904 3.066327
v -1.991427 0.048336 3.066327
v -2.011127 0.020904 3.001381
v -2.011127 0.048336 3.001381
v -2.017780 0.020905 2.933841
v -2.017780 0.048336 2.933841
v -2.011127 0.020905 2.866300
v -2.011127 0.048336 2.866300
v -1.991427 0.020905 2.801354
v -1.991427 0.048336 2.801354
v -1.959434 0.020905 2.741500
v -1.959434 0.048336 2.741500
v -1.916379 0.020905 2.689037
v -1.916379 0.048336 2.689037
v -1.863916 0.020905 2.645982
v -1.863916 0.048336 2.645982
v -1.804062 0.020905 2.613989
v -1.804062 0.048336 2.613989
v -1.739117 0.020905 2.594289
v -1.739117 0.048336 2.594289
vn 0.0980 -0.0000 -0.9952
vn 0.2903 -0.0000 -0.9569
vn 0.4714 -0.0000 -0.8819
vn 0.6344 -0.0000 -0.7730
vn 0.7730 -0.0000 -0.6344
vn 0.8819 -0.0000 -0.4714
vn 0.9569 -0.0000 -0.2903
vn 0.9952 -0.0000 -0.0980
vn 0.9952 -0.0000 0.0980
vn 0.9569 -0.0000 0.2903
vn 0.8819 -0.0000 0.4714
vn 0.7730 -0.0000 0.6344
vn 0.6344 -0.0000 0.7730
vn 0.4714 -0.0000 0.8819
vn 0.2903 -0.0000 0.9569
vn 0.0980 -0.0000 0.9952
vn -0.0980 -0.0000 0.9952
vn -0.2903 -0.0000 0.9569
vn -0.4714 -0.0000 0.8819
vn -0.6344 -0.0000 0.7730
vn -0.7730 -0.0000 0.6344
vn -0.8819 -0.0000 0.4714
vn -0.9569 -0.0000 0.2903
vn -0.9952 -0.0000 0.0980
vn -0.9952 -0.0000 -0.0980
vn -0.9569 -0.0000 -0.2903
vn -0.8819 -0.0000 -0.4714
vn -0.7730 -0.0000 -0.6344
vn -0.6344 -0.0000 -0.7730
vn -0.4714 -0.0000 -0.8819
vn -0.0000 1.0000 -0.0000
vn -0.2903 -0.0000 -0.9569
vn -0.0980 -0.0000 -0.9952
vn -0.0000 -1.0000 -0.0000
vn 0.0001 -1.0000 -0.0000
vn -0.0001 -1.0000 -0.0000
vt 0.683772 0.526547
vt 0.289771 0.526547
vt 0.585272 0.522607
vt 0.683772 0.723548
vt 0.454805 0.209764
vt 0.289771 0.723548
vt 0.671460 0.526547
vt 0.603720 0.520790
vt 0.671460 0.723548
vt 0.454805 0.185567
vt 0.659147 0.526547
vt 0.621459 0.515409
vt 0.659147 0.723548
vt 0.452149 0.161834
vt 0.646835 0.526547
vt 0.637807 0.506671
vt 0.646835 0.723548
vt 0.446941 0.139479
vt 0.634522 0.526547
vt 0.652136 0.494911
vt 0.634522 0.723548
vt 0.439379 0.119360
vt 0.622210 0.526547
vt 0.663896 0.480582
vt 0.622210 0.723548
vt 0.429754 0.102250
vt 0.609897 0.526547
vt 0.672634 0.464233
vt 0.609897 0.723548
vt 0.418437 0.088806
vt 0.597584 0.526547
vt 0.678015 0.446495
vt 0.597584 0.723548
vt 0.405862 0.079546
vt 0.585272 0.526547
vt 0.679832 0.428047
vt 0.585272 0.723548
vt 0.392513 0.074826
vt 0.572959 0.526547
vt 0.678015 0.409599
vt 0.572959 0.723548
vt 0.378902 0.074826
vt 0.560647 0.526547
vt 0.672634 0.391860
vt 0.560647 0.723548
vt 0.365553 0.079546
vt 0.548334 0.526547
vt 0.663896 0.375512
vt 0.548334 0.723548
vt 0.352978 0.088806
vt 0.536022 0.526547
vt 0.652136 0.361182
vt 0.536022 0.723548
vt 0.341661 0.102249
vt 0.523709 0.526547
vt 0.637807 0.349423
vt 0.523709 0.723548
vt 0.332036 0.119359
vt 0.511397 0.526547
vt 0.621459 0.340685
vt 0.511397 0.723548
vt 0.324474 0.139479
vt 0.499084 0.526547
vt 0.603720 0.335304
vt 0.499084 0.723548
vt 0.319266 0.161834
vt 0.486772 0.526547
vt 0.585272 0.333487
vt 0.486772 0.723548
vt 0.316610 0.185566
vt 0.474459 0.526547
vt 0.566824 0.335304
vt 0.474459 0.723548
vt 0.316610 0.209764
vt 0.462147 0.526547
vt 0.549085 0.340685
vt 0.462147 0.723548
vt 0.319266 0.233496
vt 0.449834 0.526547
vt 0.532737 0.349423
vt 0.449834 0.723548
vt 0.324474 0.255851
vt 0.437522 0.526547
vt 0.518408 0.361182
vt 0.437522 0.723548
vt 0.332036 0.275971
vt 0.425209 0.526547
vt 0.506648 0.375512
vt 0.425209 0.723548
vt 0.341661 0.293081
vt 0.412896 0.526547
vt 0.497910 0.391860
vt 0.412896 0.723548
vt 0.352978 0.306524
vt 0.400584 0.526547
vt 0.492529 0.409599
vt 0.400584 0.723548
vt 0.365553 0.315784
vt 0.388271 0.526547
vt 0.490712 0.428047
vt 0.388271 0.723548
vt 0.378902 0.320505
vt 0.375959 0.526547
vt 0.492529 0.446495
vt 0.375959 0.723548
vt 0.392513 0.320505
vt 0.363646 0.526547
vt 0.497910 0.464233
vt 0.363646 0.723548
vt 0.405862 0.315784
vt 0.351334 0.526547
vt 0.506648 0.480582
vt 0.351334 0.723548
vt 0.418437 0.306524
vt 0.339021 0.526547
vt 0.518408 0.494911
vt 0.339021 0.723548
vt 0.429754 0.293081
vt 0.326709 0.526547
vt 0.532737 0.506671
vt 0.326709 0.723548
vt 0.439379 0.275971
vt 0.314396 0.526547
vt 0.549085 0.515409
vt 0.446941 0.255852
vt 0.314396 0.723548
vt 0.302084 0.526547
vt 0.566824 0.520790
vt 0.452149 0.233496
vt 0.302084 0.723548
s 0
usemtl NUMBERS
f 2/4/1 3/7/1 1/1/1
f 4/9/2 5/11/2 3/7/2
f 6/13/3 7/15/3 5/11/3
f 8/17/4 9/19/4 7/15/4
f 10/21/5 11/23/5 9/19/5
f 12/25/6 13/27/6 11/23/6
f 14/29/7 15/31/7 13/27/7
f 16/33/8 17/35/8 15/31/8
f 18/37/9 19/39/9 17/35/9
f 20/41/10 21/43/10 19/39/10
f 22/45/11 23/47/11 21/43/11
f 24/49/12 25/51/12 23/47/12
f 26/53/13 27/55/13 25/51/13
f 28/57/14 29/59/14 27/55/14
f 30/61/15 31/63/15 29/59/15
f 32/65/16 33/67/16 31/63/16
f 34/69/17 35/71/17 33/67/17
f 36/73/18 37/75/18 35/71/18
f 38/77/19 39/79/19 37/75/19
f 40/81/20 41/83/20 39/79/20
f 42/85/21 43/87/21 41/83/21
f 44/89/22 45/91/22 43/87/22
f 46/93/23 47/95/23 45/91/23
f 48/97/24 49/99/24 47/95/24
f 50/101/25 51/103/25 49/99/25
f 52/105/26 53/107/26 51/103/26
f 54/109/27 55/111/27 53/107/27
f 56/113/28 57/115/28 55/111/28
f 58/117/29 59/119/29 57/115/29
f 60/121/30 61/123/30 59/119/30
f 38/78/31 22/46/31 6/14/31
f 62/126/32 63/127/32 61/123/32
f 64/130/33 1/2/33 63/127/33
f 31/64/34 47/96/34 63/128/34
f 2/4/1 4/9/1 3/7/1
f 4/9/2 6/13/2 5/11/2
f 6/13/3 8/17/3 7/15/3
f 8/17/4 10/21/4 9/19/4
f 10/21/5 12/25/5 11/23/5
f 12/25/6 14/29/6 13/27/6
f 14/29/7 16/33/7 15/31/7
f 16/33/8 18/37/8 17/35/8
f 18/37/9 20/41/9 19/39/9
f 20/41/10 22/45/10 21/43/10
f 22/45/11 24/49/11 23/47/11
f 24/49/12 26/53/12 25/51/12
f 26/53/13 28/57/13 27/55/13
f 28/57/14 30/61/14 29/59/14
f 30/61/15 32/65/15 31/63/15
f 32/65/16 34/69/16 33/67/16
f 34/69/17 36/73/17 35/71/17
f 36/73/18 38/77/18 37/75/18
f 38/77/19 40/81/19 39/79/19
f 40/81/20 42/85/20 41/83/20
f 42/85/21 44/89/21 43/87/21
f 44/89/22 46/93/22 45/91/22
f 46/93/23 48/97/23 47/95/23
f 48/97/24 50/101/24 49/99/24
f 50/101/25 52/105/25 51/103/25
f 52/105/26 54/109/26 53/107/26
f 54/109/27 56/113/27 55/111/27
f 56/113/28 58/117/28 57/115/28
f 58/117/29 60/121/29 59/119/29
f 60/121/30 62/126/30 61/123/30
f 6/14/31 4/10/31 2/5/31
f 2/5/31 64/129/31 62/125/31
f 62/125/31 60/122/31 58/118/31
f 58/118/31 56/114/31 54/110/31
f 54/110/31 52/106/31 50/102/31
f 50/102/31 48/98/31 46/94/31
f 46/94/31 44/90/31 42/86/31
f 42/86/31 40/82/31 38/78/31
f 38/78/31 36/74/31 34/70/31
f 34/70/31 32/66/31 30/62/31
f 30/62/31 28/58/31 26/54/31
f 26/54/31 24/50/31 22/46/31
f 22/46/31 20/42/31 18/38/31
f 18/38/31 16/34/31 14/30/31
f 14/30/31 12/26/31 10/22/31
f 10/22/31 8/18/31 6/14/31
f 6/14/31 2/5/31 62/125/31
f 62/125/31 58/118/31 54/110/31
f 54/110/31 50/102/31 46/94/31
f 46/94/31 42/86/31 38/78/31
f 38/78/31 34/70/31 30/62/31
f 30/62/31 26/54/31 22/46/31
f 22/46/31 18/38/31 14/30/31
f 14/30/31 10/22/31 6/14/31
f 6/14/31 62/125/31 54/110/31
f 54/110/31 46/94/31 38/78/31
f 38/78/31 30/62/31 22/46/31
f 22/46/31 14/30/31 6/14/31
f 6/14/31 54/110/31 38/78/31
f 62/126/32 64/130/32 63/127/32
f 64/130/33 2/6/33 1/2/33
f 63/128/34 1/3/34 3/8/34
f 3/8/34 5/12/34 7/16/34
f 7/16/34 9/20/34 11/24/34
f 11/24/34 13/28/34 15/32/34
f 15/32/35 17/36/35 19/40/35
f 19/40/34 21/44/34 23/48/34
f 23/48/34 25/52/34 27/56/34
f 27/56/34 29/60/34 31/64/34
f 31/64/34 33/68/34 35/72/34
f 35/72/34 37/76/34 39/80/34
f 39/80/34 41/84/34 43/88/34
f 43/88/34 45/92/34 47/96/34
f 47/96/36 49/100/36 51/104/36
f 51/104/34 53/108/34 55/112/34
f 55/112/34 57/116/34 59/120/34
f 59/120/34 61/124/34 63/128/34
f 63/128/34 3/8/34 7/16/34
f 7/16/34 11/24/34 15/32/34
f 15/32/34 19/40/34 23/48/34
f 23/48/34 27/56/34 31/64/34
f 31/64/34 35/72/34 39/80/34
f 39/80/34 43/88/34 47/96/34
f 47/96/34 51/104/34 55/112/34
f 55/112/34 59/120/34 63/128/34
f 63/128/34 7/16/34 15/32/34
f 15/32/34 23/48/34 31/64/34
f 31/64/34 39/80/34 47/96/34
f 47/96/34 55/112/34 63/128/34
f 63/128/34 15/32/34 31/64/34
