# Blender 3.4.1
# www.blender.org
mtllib feld.003.mtl
o feld.003
v -2.606699 -0.000000 1.504751
v -2.606699 -0.000000 0.504751
v -3.472723 -0.000000 1.004751
v -3.472723 -0.000000 2.004751
v -2.606699 -0.000000 2.504751
v -1.740674 -0.000000 2.004751
v -1.740674 -0.000000 1.004751
v -2.606699 0.023227 1.504751
v -2.606699 0.023227 0.504751
v -3.472723 0.023227 1.004751
v -3.472723 0.023227 2.004751
v -2.606699 0.023227 2.504751
v -1.740674 0.023227 2.004751
v -1.740674 0.023227 1.004751
vn -0.0000 -1.0000 -0.0000
vn -0.0000 1.0000 -0.0000
vn 0.5000 -0.0000 -0.8660
vn -0.5000 -0.0000 -0.8660
vn 1.0000 -0.0000 -0.0000
vn 0.5000 -0.0000 0.8660
vn -0.5000 -0.0000 0.8660
vn -1.0000 -0.0000 -0.0000
vt 0.500000 0.358519
vt 0.451424 0.384712
vt 0.451424 0.367840
vt 0.500000 1.000000
vt 0.468296 0.376276
vt 0.565924 0.325557
vt 0.000000 0.750000
vt 0.565924 0.391481
vt 0.663735 0.364601
vt 0.000000 0.250000
vt 0.500000 0.424443
vt 0.500000 0.000000
vt 0.852613 0.446003
vt 0.434076 0.391481
vt 0.434553 0.393147
vt 1.000000 0.250000
vt 0.434553 0.376276
vt 1.000000 0.750000
vt 0.645440 0.522339
vt 0.460690 0.597902
vt 0.500000 1.000000
vt 0.460887 0.445994
vt 0.000000 0.750000
vt 0.651180 0.373475
vt 0.000000 0.250000
vt 0.500000 0.000000
vt 0.831834 0.450248
vt 0.826093 0.601426
vt 1.000000 0.250000
vt 0.642989 0.674675
vt 1.000000 0.750000
s 0
usemtl tiles_1
f 1/2/1 3/5/1 2/3/1
f 1/1/1 4/8/1 3/6/1
f 1/1/1 5/11/1 4/8/1
f 1/1/1 6/14/1 5/11/1
f 1/2/1 7/17/1 6/15/1
f 1/2/1 2/3/1 7/17/1
f 8/19/2 9/20/2 10/22/2
f 8/19/2 10/22/2 11/24/2
f 8/19/2 11/24/2 12/27/2
f 8/19/2 12/27/2 13/28/2
f 8/19/2 13/28/2 14/30/2
f 8/19/2 14/30/2 9/20/2
f 2/4/3 14/31/3 7/18/3
f 3/7/4 9/21/4 2/4/4
f 7/18/5 13/29/5 6/16/5
f 6/16/6 12/26/6 5/12/6
f 5/13/7 11/24/7 4/9/7
f 4/10/8 10/23/8 3/7/8
f 2/4/3 9/21/3 14/31/3
f 3/7/4 10/23/4 9/21/4
f 7/18/5 14/31/5 13/29/5
f 6/16/6 13/29/6 12/26/6
f 5/13/7 12/27/7 11/24/7
f 4/10/8 11/25/8 10/23/8
