# Blender 3.4.1
# www.blender.org
mtllib lehm.002.mtl
o lehm.002
v -0.868486 0.000000 -1.503647
v -0.868486 0.000000 -2.503647
v -1.734511 0.000000 -2.003647
v -1.734511 0.000000 -1.003647
v -0.868486 0.000000 -0.503647
v -0.002461 0.000000 -1.003647
v -0.002461 0.000000 -2.003647
v -0.868486 0.023227 -1.503647
v -0.868486 0.023227 -2.503647
v -1.734511 0.023227 -2.003647
v -1.734511 0.023227 -1.003647
v -0.868486 0.023227 -0.503647
v -0.002461 0.023227 -1.003647
v -0.002461 0.023227 -2.003647
vn -0.0000 -1.0000 -0.0000
vn -0.0000 1.0000 -0.0000
vn 0.5000 -0.0000 -0.8660
vn -0.5000 -0.0000 -0.8660
vn 1.0000 -0.0000 -0.0000
vn 0.5000 -0.0000 0.8660
vn -0.5000 -0.0000 0.8660
vn -1.0000 -0.0000 -0.0000
vt 0.899958 0.383523
vt 0.899958 0.462465
vt 0.500000 1.000000
vt 0.821017 0.422994
vt 0.000000 0.750000
vt 0.821017 0.344052
vt 0.000000 0.250000
vt 0.899958 0.304581
vt 0.500000 0.000000
vt 0.978900 0.344052
vt 1.000000 0.250000
vt 0.978900 0.422994
vt 1.000000 0.750000
vt 0.250254 0.196615
vt 0.069116 0.113551
vt 0.500000 1.000000
vt 0.264998 0.042946
vt 0.000000 0.750000
vt 0.447441 0.124988
vt 0.000000 0.250000
vt 0.434770 0.279358
vt 0.500000 0.000000
vt 0.242805 0.346828
vt 1.000000 0.250000
vt 0.062205 0.267220
vt 1.000000 0.750000
s 0
usemtl tiles_1
f 1/1/1 3/4/1 2/2/1
f 1/1/1 4/6/1 3/4/1
f 1/1/1 5/8/1 4/6/1
f 1/1/1 6/10/1 5/8/1
f 1/1/1 7/12/1 6/10/1
f 1/1/1 2/2/1 7/12/1
f 8/14/2 9/15/2 10/17/2
f 8/14/2 10/17/2 11/19/2
f 8/14/2 11/19/2 12/21/2
f 8/14/2 12/21/2 13/23/2
f 8/14/2 13/23/2 14/25/2
f 8/14/2 14/25/2 9/15/2
f 2/3/3 14/26/3 7/13/3
f 3/5/4 9/16/4 2/3/4
f 7/13/5 13/24/5 6/11/5
f 6/11/6 12/22/6 5/9/6
f 5/9/7 11/20/7 4/7/7
f 4/7/8 10/18/8 3/5/8
f 2/3/3 9/16/3 14/26/3
f 3/5/4 10/18/4 9/16/4
f 7/13/5 14/26/5 13/24/5
f 6/11/6 13/24/6 12/22/6
f 5/9/7 12/22/7 11/20/7
f 4/7/8 11/20/8 10/18/8
