# Blender 3.4.1
# www.blender.org
mtllib mine.002.mtl
o mine.002
v -1.733732 -0.000000 3.010128
v -1.733732 -0.000000 2.010128
v -2.599757 -0.000000 2.510128
v -2.599757 -0.000000 3.510128
v -1.733732 -0.000000 4.010128
v -0.867707 -0.000000 3.510128
v -0.867707 -0.000000 2.510128
v -1.733732 0.023227 3.010128
v -1.733732 0.023227 2.010128
v -2.599757 0.023227 2.510128
v -2.599757 0.023227 3.510128
v -1.733732 0.023227 4.010128
v -0.867707 0.023227 3.510128
v -0.867707 0.023227 2.510128
vn -0.0000 -1.0000 -0.0000
vn -0.0000 1.0000 -0.0000
vn 0.5000 -0.0000 -0.8660
vn -0.5000 -0.0000 -0.8660
vn 1.0000 -0.0000 -0.0000
vn 0.5000 -0.0000 0.8660
vn -0.5000 -0.0000 0.8660
vn -1.0000 -0.0000 -0.0000
vt 0.921053 0.342593
vt 0.921053 0.289131
vt 0.500000 1.000000
vt 0.974514 0.315862
vt 0.000000 0.750000
vt 0.974514 0.369324
vt 0.000000 0.250000
vt 0.921053 0.396055
vt 0.500000 0.000000
vt 0.867591 0.369324
vt 1.000000 0.250000
vt 0.867591 0.315862
vt 1.000000 0.750000
vt 0.236842 0.518864
vt 0.052250 0.442908
vt 0.500000 1.000000
vt 0.241312 0.364071
vt 0.000000 0.750000
vt 0.427549 0.442342
vt 0.000000 0.250000
vt 0.426368 0.594819
vt 0.500000 0.000000
vt 0.237307 0.671341
vt 1.000000 0.250000
vt 0.051070 0.593071
vt 1.000000 0.750000
s 0
usemtl tiles_1
f 1/1/1 3/4/1 2/2/1
f 1/1/1 4/6/1 3/4/1
f 1/1/1 5/8/1 4/6/1
f 1/1/1 6/10/1 5/8/1
f 1/1/1 7/12/1 6/10/1
f 1/1/1 2/2/1 7/12/1
f 8/14/2 9/15/2 10/17/2
f 8/14/2 10/17/2 11/19/2
f 8/14/2 11/19/2 12/21/2
f 8/14/2 12/21/2 13/23/2
f 8/14/2 13/23/2 14/25/2
f 8/14/2 14/25/2 9/15/2
f 2/3/3 14/26/3 7/13/3
f 3/5/4 9/16/4 2/3/4
f 7/13/5 13/24/5 6/11/5
f 6/11/6 12/22/6 5/9/6
f 5/9/7 11/20/7 4/7/7
f 4/7/8 10/18/8 3/5/8
f 2/3/3 9/16/3 14/26/3
f 3/5/4 10/18/4 9/16/4
f 7/13/5 14/26/5 13/24/5
f 6/11/6 13/24/6 12/22/6
f 5/9/7 12/22/7 11/20/7
f 4/7/8 11/20/8 10/18/8
