# Blender 3.4.1
# www.blender.org
mtllib mine.001.mtl
o mine.001
v 0.000000 0.000000 -3.004643
v 0.000000 0.000000 -4.004643
v -0.866025 0.000000 -3.504643
v -0.866025 0.000000 -2.504643
v 0.000000 0.000000 -2.004643
v 0.866025 0.000000 -2.504643
v 0.866025 0.000000 -3.504643
v 0.000000 0.023227 -3.004643
v 0.000000 0.023227 -4.004643
v -0.866025 0.023227 -3.504643
v -0.866025 0.023227 -2.504643
v 0.000000 0.023227 -2.004643
v 0.866025 0.023227 -2.504643
v 0.866025 0.023227 -3.504643
vn -0.0000 -1.0000 -0.0000
vn -0.0000 1.0000 -0.0000
vn 0.5000 -0.0000 -0.8660
vn -0.5000 -0.0000 -0.8660
vn 1.0000 -0.0000 -0.0000
vn 0.5000 -0.0000 0.8660
vn -0.5000 -0.0000 0.8660
vn -1.0000 -0.0000 -0.0000
vt 0.906159 0.374591
vt 0.906159 0.292527
vt 0.500000 1.000000
vt 0.988223 0.333559
vt 0.000000 0.750000
vt 0.988223 0.415623
vt 0.000000 0.250000
vt 0.906159 0.456655
vt 0.500000 0.000000
vt 0.824095 0.415623
vt 1.000000 0.250000
vt 0.824095 0.333559
vt 1.000000 0.750000
vt 0.242977 0.523388
vt 0.242731 0.671481
vt 0.500000 1.000000
vt 0.052606 0.595051
vt 0.000000 0.750000
vt 0.052917 0.442675
vt 0.000000 0.250000
vt 0.239209 0.365270
vt 0.500000 0.000000
vt 0.425190 0.440242
vt 1.000000 0.250000
vt 0.426161 0.596392
vt 1.000000 0.750000
s 0
usemtl tiles_1
f 1/1/1 3/4/1 2/2/1
f 1/1/1 4/6/1 3/4/1
f 1/1/1 5/8/1 4/6/1
f 1/1/1 6/10/1 5/8/1
f 1/1/1 7/12/1 6/10/1
f 1/1/1 2/2/1 7/12/1
f 8/14/2 9/15/2 10/17/2
f 8/14/2 10/17/2 11/19/2
f 8/14/2 11/19/2 12/21/2
f 8/14/2 12/21/2 13/23/2
f 8/14/2 13/23/2 14/25/2
f 8/14/2 14/25/2 9/15/2
f 2/3/3 14/26/3 7/13/3
f 3/5/4 9/16/4 2/3/4
f 7/13/5 13/24/5 6/11/5
f 6/11/6 12/22/6 5/9/6
f 5/9/7 11/20/7 4/7/7
f 4/7/8 10/18/8 3/5/8
f 2/3/3 9/16/3 14/26/3
f 3/5/4 10/18/4 9/16/4
f 7/13/5 14/26/5 13/24/5
f 6/11/6 13/24/6 12/22/6
f 5/9/7 12/22/7 11/20/7
f 4/7/8 11/20/8 10/18/8
