# Blender 3.4.1
# www.blender.org
mtllib skybox.mtl
o Cube
v -133.533951 -1.942242 -145.064407
v -133.533951 -0.999785 -145.064407
v -133.533951 -1.942217 144.511276
v -133.533951 -0.999759 144.511276
v 133.775070 -1.942242 -145.064407
v 133.775070 -0.999785 -145.064407
v 133.775070 -1.942217 144.511276
v 133.775070 -0.999759 144.511276
vn -1.0000 -0.0000 -0.0000
vn -0.0000 -0.0000 1.0000
vn 1.0000 -0.0000 -0.0000
vn -0.0000 -0.0000 -1.0000
vn -0.0000 -1.0000 -0.0000
vn -0.0000 1.0000 -0.0000
vt 0.500000 0.999914
vt 0.500000 0.000087
vt 0.749957 0.250043
vt 0.250043 0.999914
vt 0.250043 0.000087
vt 0.000096 0.000096
vt 0.749957 0.500000
vt 0.500000 0.749957
vt 0.250043 0.749957
vt 0.000096 0.999904
vt 0.500000 0.250043
vt 0.250043 0.250043
vt 0.923025 0.000096
vt 0.500000 0.500000
vt 0.923025 0.999904
vt 0.250043 0.500000
s 0
usemtl space.001
f 2/4/1 1/1/1 3/8/1
f 4/9/2 3/8/2 7/14/2
f 8/16/3 7/14/3 5/11/3
f 6/12/4 5/11/4 1/2/4
f 7/14/5 3/7/5 1/3/5
f 4/10/6 8/15/6 6/13/6
f 2/4/1 3/8/1 4/9/1
f 4/9/2 7/14/2 8/16/2
f 8/16/3 5/11/3 6/12/3
f 6/12/4 1/2/4 2/5/4
f 7/14/5 1/3/5 5/11/5
f 4/10/6 6/13/6 2/6/6
