# Blender 3.4.1
# www.blender.org
mtllib strasse_rot_3.mtl
o strasse_rot_3
v -3.189246 0.022278 0.829053
v -3.189246 0.107831 0.829053
v -2.727070 0.022278 0.494844
v -2.727070 0.107831 0.494844
v -3.139115 0.022278 0.898380
v -3.139115 0.107831 0.898380
v -2.676939 0.022278 0.564171
v -2.676939 0.107831 0.564171
vn -0.5860 -0.0000 -0.8103
vn 0.8103 -0.0000 -0.5860
vn 0.5860 -0.0000 0.8103
vn -0.8103 -0.0000 0.5860
vn -0.0000 -1.0000 -0.0000
vn -0.0000 1.0000 -0.0000
vt 0.000100 0.000100
vt 0.150027 0.000039
vt 0.150027 0.000039
vt 0.000100 0.999900
vt 0.000039 0.000039
vt 0.000101 0.000100
vt 0.150027 0.999961
vt 0.000039 0.999961
vt 0.150027 0.999961
vt 0.999900 0.000100
vt 0.000039 0.999961
vt 0.999900 0.000100
vt 0.150027 0.000039
vt 0.000039 0.000039
vt 0.000039 0.000039
vt 0.999900 0.999900
vt 0.150027 0.000039
vt 0.150027 0.999961
vt 0.000039 0.999961
vt 0.150027 0.999961
vt 0.999900 0.999900
vt 0.000039 0.999961
s 0
usemtl red_wood
f 2/3/1 3/8/1 1/1/1
f 4/10/2 7/19/2 3/6/2
f 8/22/3 5/13/3 7/18/3
f 6/16/4 1/1/4 5/12/4
f 7/19/5 1/2/5 3/7/5
f 4/11/6 6/17/6 8/20/6
f 2/3/1 4/9/1 3/8/1
f 4/10/2 8/21/2 7/19/2
f 8/22/3 6/15/3 5/13/3
f 6/16/4 2/4/4 1/1/4
f 7/19/5 5/14/5 1/2/5
f 4/11/6 2/5/6 6/17/6
