# Blender 3.4.1
# www.blender.org
mtllib strasse_rot_2.mtl
o strasse_rot_2
v -0.265529 0.022278 3.889157
v -0.265529 0.107831 3.889157
v -0.777923 0.022278 3.638648
v -0.777923 0.107831 3.638648
v -0.227953 0.022278 3.812298
v -0.227953 0.107831 3.812298
v -0.740347 0.022278 3.561789
v -0.740347 0.107831 3.561789
vn -0.4392 -0.0000 0.8984
vn -0.8984 -0.0000 -0.4392
vn 0.4392 -0.0000 -0.8984
vn 0.8984 -0.0000 0.4392
vn -0.0000 -1.0000 -0.0000
vn -0.0000 1.0000 -0.0000
vt 0.000100 0.000100
vt 0.150027 0.000039
vt 0.150027 0.000039
vt 0.000100 0.999900
vt 0.000039 0.000039
vt 0.000101 0.000100
vt 0.150027 0.999961
vt 0.000039 0.999961
vt 0.150027 0.999961
vt 0.999900 0.000100
vt 0.000039 0.999961
vt 0.999900 0.000100
vt 0.150027 0.000039
vt 0.000039 0.000039
vt 0.000039 0.000039
vt 0.999900 0.999900
vt 0.150027 0.000039
vt 0.150027 0.999961
vt 0.000039 0.999961
vt 0.150027 0.999961
vt 0.999900 0.999900
vt 0.000039 0.999961
s 0
usemtl red_wood
f 2/3/1 3/8/1 1/1/1
f 4/10/2 7/19/2 3/6/2
f 8/22/3 5/13/3 7/18/3
f 6/16/4 1/1/4 5/12/4
f 7/19/5 1/2/5 3/7/5
f 4/11/6 6/17/6 8/20/6
f 2/3/1 4/9/1 3/8/1
f 4/10/2 8/21/2 7/19/2
f 8/22/3 6/15/3 5/13/3
f 6/16/4 2/4/4 1/1/4
f 7/19/5 5/14/5 1/2/5
f 4/11/6 2/5/6 6/17/6
