# Blender 3.4.1
# www.blender.org
mtllib trade_wheat.mtl
o trade_wheat
v -4.340356 0.000000 -1.503032
v -4.340356 0.000000 -2.503032
v -5.206381 0.000000 -2.003032
v -5.206381 0.000000 -1.003032
v -4.340356 0.000000 -0.503032
v -3.474331 0.000000 -1.003032
v -3.474331 0.000000 -2.003032
v -4.340356 0.023227 -1.503032
v -4.340356 0.023227 -2.503032
v -5.206381 0.023227 -2.003032
v -5.206381 0.023227 -1.003032
v -4.340356 0.023227 -0.503032
v -3.474331 0.023227 -1.003032
v -3.474331 0.023227 -2.003032
vn -0.0000 -1.0000 -0.0000
vn -0.0000 1.0000 -0.0000
vn 0.5000 -0.0000 -0.8660
vn -0.5000 -0.0000 -0.8660
vn 1.0000 -0.0000 -0.0000
vn 0.5000 -0.0000 0.8660
vn -0.5000 -0.0000 0.8660
vn -1.0000 -0.0000 -0.0000
vt 0.926881 0.103358
vt 0.926881 0.056049
vt 0.776418 0.688035
vt 0.500000 1.000000
vt 0.974190 0.079704
vt 0.893246 0.746449
vt 0.974190 0.127013
vt 0.000000 0.250000
vt 0.893246 0.863277
vt 0.926881 0.150667
vt 0.500000 0.000000
vt 0.879572 0.127013
vt 1.000000 0.250000
vt 0.879572 0.079704
vt 1.000000 0.750000
vt 0.666464 0.211509
vt 0.477622 0.277365
vt 0.500000 1.000000
vt 0.776418 0.688035
vt 0.485352 0.124920
vt 0.893246 0.746449
vt 0.677263 0.054964
vt 0.000000 0.250000
vt 0.893246 0.863277
vt 0.857073 0.136426
vt 0.500000 0.000000
vt 0.847680 0.288646
vt 1.000000 0.250000
vt 0.656732 0.358231
vt 1.000000 0.750000
s 0
usemtl tiles_1
f 1/1/1 3/5/1 2/2/1
f 1/1/1 4/7/1 3/5/1
f 1/1/1 5/10/1 4/7/1
f 1/1/1 6/12/1 5/10/1
f 1/1/1 7/14/1 6/12/1
f 1/1/1 2/2/1 7/14/1
f 8/16/2 9/17/2 10/20/2
f 8/16/2 10/20/2 11/22/2
f 8/16/2 11/22/2 12/25/2
f 8/16/2 12/25/2 13/27/2
f 8/16/2 13/27/2 14/29/2
f 8/16/2 14/29/2 9/17/2
f 2/4/3 14/30/3 7/15/3
f 3/6/4 9/19/4 2/3/4
f 7/15/5 13/28/5 6/13/5
f 6/13/6 12/26/6 5/11/6
f 5/11/7 11/23/7 4/8/7
f 4/9/8 10/21/8 3/6/8
f 2/4/3 9/18/3 14/30/3
f 3/6/4 10/21/4 9/19/4
f 7/15/5 14/30/5 13/28/5
f 6/13/6 13/28/6 12/26/6
f 5/11/7 12/26/7 11/23/7
f 4/9/8 11/24/8 10/21/8
