# Blender 3.4.1
# www.blender.org
mtllib trade_wood.mtl
o trade_wood
v 4.340547 0.000000 -1.503032
v 4.340547 0.000000 -2.503032
v 3.474522 0.000000 -2.003032
v 3.474522 0.000000 -1.003032
v 4.340547 0.000000 -0.503032
v 5.206572 0.000000 -1.003032
v 5.206572 0.000000 -2.003032
v 4.340547 0.023227 -1.503032
v 4.340547 0.023227 -2.503032
v 3.474522 0.023227 -2.003032
v 3.474522 0.023227 -1.003032
v 4.340547 0.023227 -0.503032
v 5.206572 0.023227 -1.003032
v 5.206572 0.023227 -2.003032
vn -0.0000 -1.0000 -0.0000
vn -0.0000 1.0000 -0.0000
vn 0.5000 -0.0000 -0.8660
vn -0.5000 -0.0000 -0.8660
vn 1.0000 -0.0000 -0.0000
vn 0.5000 -0.0000 0.8660
vn -0.5000 -0.0000 0.8660
vn -1.0000 -0.0000 -0.0000
vt 0.947368 0.675926
vt 0.871711 0.750000
vt 0.947368 0.657407
vt 0.851974 0.724537
vt 0.911184 0.689815
vt 0.868421 0.625000
vt 1.000000 0.750000
vt 0.625298 0.520791
vt 0.814213 0.447870
vt 0.646208 0.680315
vt 0.812058 0.600704
vt 0.947368 0.657407
vt 0.621543 0.674934
vt 0.871710 0.689815
vt 0.438349 0.596777
vt 0.914474 0.662037
vt 0.442299 0.446820
vt 0.934211 0.592593
vt 0.631221 0.370173
vt 1.000000 0.750000
s 0
usemtl tiles_2
f 1/1/1 3/3/1 2/2/1
f 1/1/1 4/4/1 3/3/1
f 1/1/1 5/5/1 4/4/1
f 1/1/1 6/6/1 5/5/1
f 1/1/1 7/7/1 6/6/1
f 1/1/1 2/2/1 7/7/1
f 8/8/2 9/9/2 10/11/2
f 8/8/2 10/11/2 11/13/2
f 8/8/2 11/13/2 12/15/2
f 8/8/2 12/15/2 13/17/2
f 8/8/2 13/17/2 14/19/2
f 8/8/2 14/19/2 9/9/2
f 2/2/3 14/20/3 7/7/3
f 3/3/4 9/10/4 2/2/4
f 7/7/5 13/18/5 6/6/5
f 6/6/6 12/16/6 5/5/6
f 5/5/7 11/14/7 4/4/7
f 4/4/8 10/12/8 3/3/8
f 2/2/3 9/10/3 14/20/3
f 3/3/4 10/12/4 9/10/4
f 7/7/5 14/20/5 13/18/5
f 6/6/6 13/18/6 12/16/6
f 5/5/7 12/16/7 11/14/7
f 4/4/8 11/14/8 10/12/8
