# Blender 3.4.1
# www.blender.org
mtllib trade_sheep.mtl
o trade_sheep
v 4.340547 -0.000000 1.504751
v 4.340547 -0.000000 0.504751
v 3.474522 -0.000000 1.004751
v 3.474522 -0.000000 2.004751
v 4.340547 -0.000000 2.504751
v 5.206572 -0.000000 2.004751
v 5.206572 -0.000000 1.004751
v 4.340547 0.023227 1.504751
v 4.340547 0.023227 0.504751
v 3.474522 0.023227 1.004751
v 3.474522 0.023227 2.004751
v 4.340547 0.023227 2.504751
v 5.206572 0.023227 2.004751
v 5.206572 0.023227 1.004751
vn -0.0000 -1.0000 -0.0000
vn -0.0000 1.0000 -0.0000
vn 0.5000 -0.0000 -0.8660
vn -0.5000 -0.0000 -0.8660
vn 1.0000 -0.0000 -0.0000
vn 0.5000 -0.0000 0.8660
vn -0.5000 -0.0000 0.8660
vn -1.0000 -0.0000 -0.0000
vt 0.888158 0.694444
vt 0.888158 0.591865
vt 0.870742 0.706037
vt 0.990737 0.643155
vt 0.892913 0.713255
vt 0.990737 0.745734
vt 0.886918 0.809965
vt 0.888158 0.797024
vt 0.897870 0.834114
vt 0.785579 0.745734
vt 0.929544 0.879960
vt 0.785579 0.643155
vt 1.000000 0.750000
vt 0.204097 0.839989
vt 0.019271 0.911688
vt 0.964732 0.658268
vt 0.015283 0.761578
vt 0.971239 0.584646
vt 0.206688 0.684093
vt 0.886918 0.844963
vt 0.388924 0.761347
vt 0.964181 0.702872
vt 0.386333 0.913771
vt 0.975133 0.693305
vt 0.203151 0.987784
vt 1.000000 0.750000
s 0
usemtl tiles_2
f 1/1/1 3/4/1 2/2/1
f 1/1/1 4/6/1 3/4/1
f 1/1/1 5/8/1 4/6/1
f 1/1/1 6/10/1 5/8/1
f 1/1/1 7/12/1 6/10/1
f 1/1/1 2/2/1 7/12/1
f 8/14/2 9/15/2 10/17/2
f 8/14/2 10/17/2 11/19/2
f 8/14/2 11/19/2 12/21/2
f 8/14/2 12/21/2 13/23/2
f 8/14/2 13/23/2 14/25/2
f 8/14/2 14/25/2 9/15/2
f 2/3/3 14/26/3 7/13/3
f 3/5/4 9/16/4 2/3/4
f 7/13/5 13/24/5 6/11/5
f 6/11/6 12/22/6 5/9/6
f 5/9/7 11/20/7 4/7/7
f 4/7/8 10/18/8 3/5/8
f 2/3/3 9/16/3 14/26/3
f 3/5/4 10/18/4 9/16/4
f 7/13/5 14/26/5 13/24/5
f 6/11/6 13/24/6 12/22/6
f 5/9/7 12/22/7 11/20/7
f 4/7/8 11/20/8 10/18/8
