# Blender 3.4.1
# www.blender.org
mtllib trade.mtl
o trade
v -0.868486 -0.000000 4.514287
v -0.868486 -0.000000 3.514287
v -1.734511 -0.000000 4.014287
v -1.734511 -0.000000 5.014287
v -0.868486 -0.000000 5.514287
v -0.002461 -0.000000 5.014287
v -0.002461 -0.000000 4.014287
v -0.868486 0.023227 4.514287
v -0.868486 0.023227 3.514287
v -1.734511 0.023227 4.014287
v -1.734511 0.023227 5.014287
v -0.868486 0.023227 5.514287
v -0.002461 0.023227 5.014287
v -0.002461 0.023227 4.014287
vn -0.0000 -1.0000 -0.0000
vn -0.0000 1.0000 -0.0000
vn 0.5000 -0.0000 -0.8660
vn -0.5000 -0.0000 -0.8660
vn 1.0000 -0.0000 -0.0000
vn 0.5000 -0.0000 0.8660
vn -0.5000 -0.0000 0.8660
vn -1.0000 -0.0000 -0.0000
vt 0.922959 0.702100
vt 0.922959 0.761482
vt 0.500000 1.000000
vt 0.863576 0.731791
vt 0.000000 0.750000
vt 0.863576 0.672409
vt 0.702657 0.372312
vt 0.000000 0.250000
vt 0.922959 0.642717
vt 0.839411 0.303935
vt 0.982341 0.672409
vt 1.000000 0.250000
vt 0.976166 0.372312
vt 0.982341 0.731791
vt 1.000000 0.750000
vt 0.206227 0.524665
vt 0.018495 0.591605
vt 0.500000 1.000000
vt 0.024444 0.439127
vt 0.000000 0.750000
vt 0.212176 0.365243
vt 0.702657 0.372312
vt 0.000000 0.250000
vt 0.395604 0.446151
vt 0.839411 0.303935
vt 0.389655 0.597472
vt 1.000000 0.250000
vt 0.976166 0.372312
vt 0.203567 0.669041
vt 1.000000 0.750000
s 0
usemtl tiles_2
f 1/1/1 3/4/1 2/2/1
f 1/1/1 4/6/1 3/4/1
f 1/1/1 5/9/1 4/6/1
f 1/1/1 6/11/1 5/9/1
f 1/1/1 7/14/1 6/11/1
f 1/1/1 2/2/1 7/14/1
f 8/16/2 9/17/2 10/19/2
f 8/16/2 10/19/2 11/21/2
f 8/16/2 11/21/2 12/24/2
f 8/16/2 12/24/2 13/26/2
f 8/16/2 13/26/2 14/29/2
f 8/16/2 14/29/2 9/17/2
f 2/3/3 14/30/3 7/15/3
f 3/5/4 9/18/4 2/3/4
f 7/15/5 13/27/5 6/12/5
f 6/13/6 12/25/6 5/10/6
f 5/10/7 11/22/7 4/7/7
f 4/8/8 10/20/8 3/5/8
f 2/3/3 9/18/3 14/30/3
f 3/5/4 10/20/4 9/18/4
f 7/15/5 14/30/5 13/27/5
f 6/13/6 13/28/6 12/25/6
f 5/10/7 12/25/7 11/22/7
f 4/8/8 11/23/8 10/20/8
