# Blender 3.4.1
# www.blender.org
mtllib water_3.mtl
o water_3
v -5.206709 0.000000 0.000000
v -5.206709 0.000000 -1.000000
v -6.072734 0.000000 -0.500000
v -6.072734 -0.000000 0.500000
v -5.206709 -0.000000 1.000000
v -4.340684 -0.000000 0.500000
v -4.340684 0.000000 -0.500000
v -5.206709 0.023227 0.000000
v -5.206709 0.023227 -1.000000
v -6.072734 0.023227 -0.500000
v -6.072734 0.023227 0.500000
v -5.206709 0.023227 1.000000
v -4.340684 0.023227 0.500000
v -4.340684 0.023227 -0.500000
vn -0.0000 -1.0000 -0.0000
vn -0.0000 1.0000 -0.0000
vn 0.5000 -0.0000 -0.8660
vn -0.5000 -0.0000 -0.8660
vn 1.0000 -0.0000 -0.0000
vn 0.5000 -0.0000 0.8660
vn -0.5000 -0.0000 0.8660
vn -1.0000 -0.0000 -0.0000
vt 0.896850 0.683727
vt 0.896850 0.584153
vt 0.959714 0.648024
vt 0.500000 1.000000
vt 0.996424 0.633940
vt 0.093607 0.375212
vt 0.887488 0.785966
vt 0.996424 0.733514
vt 0.083645 0.356774
vt 0.896850 0.783301
vt 0.500000 0.000000
vt 0.090720 0.337623
vt 0.797277 0.733514
vt 1.000000 0.250000
vt 0.797277 0.633940
vt 1.000000 0.750000
vt 0.632516 0.198144
vt 0.641659 0.051675
vt 0.500000 1.000000
vt 0.959714 0.648024
vt 0.824483 0.134503
vt 0.887488 0.785966
vt 0.094216 0.375049
vt 0.814900 0.283198
vt 0.084324 0.356747
vt 0.625877 0.353914
vt 0.500000 0.000000
vt 0.091474 0.337762
vt 0.442808 0.273203
vt 1.000000 0.250000
vt 0.452370 0.120298
vt 1.000000 0.750000
s 0
usemtl tiles_2
f 1/1/1 3/5/1 2/2/1
f 1/1/1 4/8/1 3/5/1
f 1/1/1 5/10/1 4/8/1
f 1/1/1 6/13/1 5/10/1
f 1/1/1 7/15/1 6/13/1
f 1/1/1 2/2/1 7/15/1
f 8/17/2 9/18/2 10/21/2
f 8/17/2 10/21/2 11/24/2
f 8/17/2 11/24/2 12/26/2
f 8/17/2 12/26/2 13/29/2
f 8/17/2 13/29/2 14/31/2
f 8/17/2 14/31/2 9/18/2
f 2/4/3 14/32/3 7/16/3
f 3/7/4 9/20/4 2/3/4
f 7/16/5 13/30/5 6/14/5
f 6/14/6 12/27/6 5/11/6
f 5/12/7 11/25/7 4/9/7
f 4/9/8 10/23/8 3/6/8
f 2/4/3 9/19/3 14/32/3
f 3/7/4 10/22/4 9/20/4
f 7/16/5 14/32/5 13/30/5
f 6/14/6 13/30/6 12/27/6
f 5/12/7 12/28/7 11/25/7
f 4/9/8 11/25/8 10/23/8
