# Blender 3.4.1
# www.blender.org
mtllib water_5.mtl
o water_5
v -2.606699 -0.000000 4.512799
v -2.606699 -0.000000 3.512799
v -3.472723 -0.000000 4.012799
v -3.472723 -0.000000 5.012799
v -2.606699 -0.000000 5.512799
v -1.740674 -0.000000 5.012799
v -1.740674 -0.000000 4.012799
v -2.606699 0.023227 4.512799
v -2.606699 0.023227 3.512799
v -3.472723 0.023227 4.012799
v -3.472723 0.023227 5.012799
v -2.606699 0.023227 5.512799
v -1.740674 0.023227 5.012799
v -1.740674 0.023227 4.012799
vn -0.0000 -1.0000 -0.0000
vn -0.0000 1.0000 -0.0000
vn 0.5000 -0.0000 -0.8660
vn -0.5000 -0.0000 -0.8660
vn 1.0000 -0.0000 -0.0000
vn 0.5000 -0.0000 0.8660
vn -0.5000 -0.0000 0.8660
vn -1.0000 -0.0000 -0.0000
vt 0.849855 0.687402
vt 0.849855 0.623594
vt 0.770602 0.023929
vt 0.913662 0.655498
vt 0.939848 0.065811
vt 0.999921 0.269315
vt 0.913662 0.719305
vt 0.770291 0.062536
vt 0.919565 0.125912
vt 0.849855 0.751209
vt 0.855076 0.020143
vt 0.786047 0.719305
vt 0.000079 0.215042
vt 0.939861 0.062536
vt 0.786047 0.655498
vt 0.373652 0.000079
vt 0.628479 0.202666
vt 0.455147 0.120308
vt 0.765123 0.031000
vt 0.642464 0.053252
vt 0.987412 0.270786
vt 0.937727 0.066060
vt 0.822013 0.135610
vt 0.770291 0.062536
vt 0.917199 0.125512
vt 0.816316 0.285024
vt 0.855076 0.020143
vt 0.626927 0.356455
vt 0.007174 0.221148
vt 0.939861 0.062536
vt 0.441162 0.271181
vt 0.377287 0.007228
s 0
usemtl tiles_2
f 1/1/1 3/4/1 2/2/1
f 1/1/1 4/7/1 3/4/1
f 1/1/1 5/10/1 4/7/1
f 1/1/1 6/12/1 5/10/1
f 1/1/1 7/15/1 6/12/1
f 1/1/1 2/2/1 7/15/1
f 8/17/2 9/18/2 10/20/2
f 8/17/2 10/20/2 11/23/2
f 8/17/2 11/23/2 12/26/2
f 8/17/2 12/26/2 13/28/2
f 8/17/2 13/28/2 14/31/2
f 8/17/2 14/31/2 9/18/2
f 2/3/3 14/32/3 7/16/3
f 3/6/4 9/19/4 2/3/4
f 7/16/5 13/29/5 6/13/5
f 6/14/6 12/27/6 5/11/6
f 5/11/7 11/24/7 4/8/7
f 4/9/8 10/22/8 3/5/8
f 2/3/3 9/19/3 14/32/3
f 3/6/4 10/21/4 9/19/4
f 7/16/5 14/32/5 13/29/5
f 6/14/6 13/30/6 12/27/6
f 5/11/7 12/27/7 11/24/7
f 4/9/8 11/25/8 10/22/8
