# Blender 3.4.1
# www.blender.org
mtllib water_9.mtl
o water_9
v 5.209844 0.000000 0.000000
v 5.209844 0.000000 -1.000000
v 4.343819 0.000000 -0.500000
v 4.343819 -0.000000 0.500000
v 5.209844 -0.000000 1.000000
v 6.075869 -0.000000 0.500000
v 6.075869 0.000000 -0.500000
v 5.209844 0.023227 0.000000
v 5.209844 0.023227 -1.000000
v 4.343819 0.023227 -0.500000
v 4.343819 0.023227 0.500000
v 5.209844 0.023227 1.000000
v 6.075869 0.023227 0.500000
v 6.075869 0.023227 -0.500000
vn -0.0000 -1.0000 -0.0000
vn -0.0000 1.0000 -0.0000
vn 0.5000 -0.0000 -0.8660
vn -0.5000 -0.0000 -0.8660
vn 1.0000 -0.0000 -0.0000
vn 0.5000 -0.0000 0.8660
vn -0.5000 -0.0000 0.8660
vn -1.0000 -0.0000 -0.0000
vt 0.888158 0.690770
vt 0.888158 0.582930
vt 0.500000 1.000000
vt 0.804792 0.685981
vt 0.995997 0.636850
vt 0.000000 0.750000
vt 0.995997 0.744690
vt 0.000000 0.250000
vt 0.888158 0.798610
vt 0.804792 0.378834
vt 0.500000 0.000000
vt 0.780318 0.744690
vt 0.958366 0.455621
vt 0.780318 0.636850
vt 0.958366 0.609194
vt 0.632623 0.199750
vt 0.625141 0.355283
vt 0.804792 0.685981
vt 0.500000 1.000000
vt 0.445305 0.272957
vt 0.000000 0.750000
vt 0.451534 0.123210
vt 0.000000 0.250000
vt 0.643395 0.051161
vt 0.804792 0.378834
vt 0.500000 0.000000
vt 0.822840 0.133488
vt 0.958366 0.455621
vt 0.817002 0.283234
vt 0.958366 0.609194
s 0
usemtl tiles_2
f 1/1/1 3/5/1 2/2/1
f 1/1/1 4/7/1 3/5/1
f 1/1/1 5/9/1 4/7/1
f 1/1/1 6/12/1 5/9/1
f 1/1/1 7/14/1 6/12/1
f 1/1/1 2/2/1 7/14/1
f 8/16/2 9/17/2 10/20/2
f 8/16/2 10/20/2 11/22/2
f 8/16/2 11/22/2 12/24/2
f 8/16/2 12/24/2 13/27/2
f 8/16/2 13/27/2 14/29/2
f 8/16/2 14/29/2 9/17/2
f 2/4/3 14/30/3 7/15/3
f 3/6/4 9/19/4 2/3/4
f 7/15/5 13/28/5 6/13/5
f 6/13/6 12/25/6 5/10/6
f 5/11/7 11/23/7 4/8/7
f 4/8/8 10/21/8 3/6/8
f 2/4/3 9/18/3 14/30/3
f 3/6/4 10/21/4 9/19/4
f 7/15/5 14/30/5 13/28/5
f 6/13/6 13/28/6 12/25/6
f 5/11/7 12/26/7 11/23/7
f 4/8/8 11/23/8 10/21/8
