# Blender 3.4.1
# www.blender.org
mtllib water_2.mtl
o water_2
v -3.467389 0.000000 -3.004643
v -3.467389 0.000000 -4.004643
v -4.333414 0.000000 -3.504643
v -4.333414 0.000000 -2.504643
v -3.467389 0.000000 -2.004643
v -2.601364 0.000000 -2.504643
v -2.601364 0.000000 -3.504643
v -3.467389 0.023227 -3.004643
v -3.467389 0.023227 -4.004643
v -4.333414 0.023227 -3.504643
v -4.333414 0.023227 -2.504643
v -3.467389 0.023227 -2.004643
v -2.601364 0.023227 -2.504643
v -2.601364 0.023227 -3.504643
vn -0.0000 -1.0000 -0.0000
vn -0.0000 1.0000 -0.0000
vn 0.5000 -0.0000 -0.8660
vn -0.5000 -0.0000 -0.8660
vn 1.0000 -0.0000 -0.0000
vn 0.5000 -0.0000 0.8660
vn -0.5000 -0.0000 0.8660
vn -1.0000 -0.0000 -0.0000
vt 0.875000 0.685185
vt 0.875000 0.781320
vt 0.900194 0.496301
vt 0.500000 1.000000
vt 0.778865 0.733253
vt 0.961246 0.570651
vt 0.778865 0.637118
vt 0.000000 0.250000
vt 0.902437 0.661107
vt 0.875000 0.589050
vt 0.500000 0.000000
vt 0.971135 0.637118
vt 1.000000 0.250000
vt 0.971135 0.733253
vt 1.000000 0.750000
vt 0.633545 0.203014
vt 0.644178 0.052444
vt 0.500000 1.000000
vt 0.900194 0.496301
vt 0.823104 0.133744
vt 0.961246 0.570651
vt 0.812470 0.285470
vt 0.000000 0.250000
vt 0.902437 0.661107
vt 0.626201 0.353583
vt 0.500000 0.000000
vt 0.443986 0.273441
vt 1.000000 0.250000
vt 0.451330 0.124029
vt 1.000000 0.750000
s 0
usemtl tiles_2
f 1/1/1 3/5/1 2/2/1
f 1/1/1 4/7/1 3/5/1
f 1/1/1 5/10/1 4/7/1
f 1/1/1 6/12/1 5/10/1
f 1/1/1 7/14/1 6/12/1
f 1/1/1 2/2/1 7/14/1
f 8/16/2 9/17/2 10/20/2
f 8/16/2 10/20/2 11/22/2
f 8/16/2 11/22/2 12/25/2
f 8/16/2 12/25/2 13/27/2
f 8/16/2 13/27/2 14/29/2
f 8/16/2 14/29/2 9/17/2
f 2/4/3 14/30/3 7/15/3
f 3/6/4 9/19/4 2/3/4
f 7/15/5 13/28/5 6/13/5
f 6/13/6 12/26/6 5/11/6
f 5/11/7 11/23/7 4/8/7
f 4/9/8 10/21/8 3/6/8
f 2/4/3 9/18/3 14/30/3
f 3/6/4 10/21/4 9/19/4
f 7/15/5 14/30/5 13/28/5
f 6/13/6 13/28/6 12/26/6
f 5/11/7 12/26/7 11/23/7
f 4/9/8 11/24/8 10/21/8
