# Blender 3.4.1
# www.blender.org
mtllib weide.001.mtl
o weide.001
v 3.472249 0.000000 0.000000
v 3.472249 0.000000 -1.000000
v 2.606224 0.000000 -0.500000
v 2.606224 -0.000000 0.500000
v 3.472249 -0.000000 1.000000
v 4.338274 -0.000000 0.500000
v 4.338274 0.000000 -0.500000
v 3.472249 0.023227 0.000000
v 3.472249 0.023227 -1.000000
v 2.606224 0.023227 -0.500000
v 2.606224 0.023227 0.500000
v 3.472249 0.023227 1.000000
v 4.338274 0.023227 0.500000
v 4.338274 0.023227 -0.500000
vn -0.0000 -1.0000 -0.0000
vn -0.0000 1.0000 -0.0000
vn 0.5000 -0.0000 -0.8660
vn -0.5000 -0.0000 -0.8660
vn 1.0000 -0.0000 -0.0000
vn 0.5000 -0.0000 0.8660
vn -0.5000 -0.0000 0.8660
vn -1.0000 -0.0000 -0.0000
vt 0.868421 0.694444
vt 0.868421 0.765873
vt 0.500000 1.000000
vt 0.796992 0.730159
vt 0.000000 0.750000
vt 0.796992 0.658730
vt 0.000000 0.250000
vt 0.868421 0.623016
vt 0.500000 0.000000
vt 0.939850 0.658730
vt 1.000000 0.250000
vt 0.939850 0.730159
vt 1.000000 0.750000
vt 0.649671 0.846410
vt 0.463415 0.919319
vt 0.500000 1.000000
vt 0.466816 0.769355
vt 0.000000 0.750000
vt 0.653072 0.696446
vt 0.000000 0.250000
vt 0.835927 0.773501
vt 0.500000 0.000000
vt 0.832526 0.923464
vt 1.000000 0.250000
vt 0.646270 0.996374
vt 1.000000 0.750000
s 0
usemtl tiles_1
f 1/1/1 3/4/1 2/2/1
f 1/1/1 4/6/1 3/4/1
f 1/1/1 5/8/1 4/6/1
f 1/1/1 6/10/1 5/8/1
f 1/1/1 7/12/1 6/10/1
f 1/1/1 2/2/1 7/12/1
f 8/14/2 9/15/2 10/17/2
f 8/14/2 10/17/2 11/19/2
f 8/14/2 11/19/2 12/21/2
f 8/14/2 12/21/2 13/23/2
f 8/14/2 13/23/2 14/25/2
f 8/14/2 14/25/2 9/15/2
f 2/3/3 14/26/3 7/13/3
f 3/5/4 9/16/4 2/3/4
f 7/13/5 13/24/5 6/11/5
f 6/11/6 12/22/6 5/9/6
f 5/9/7 11/20/7 4/7/7
f 4/7/8 10/18/8 3/5/8
f 2/3/3 9/16/3 14/26/3
f 3/5/4 10/18/4 9/16/4
f 7/13/5 14/26/5 13/24/5
f 6/11/6 13/24/6 12/22/6
f 5/9/7 12/22/7 11/20/7
f 4/7/8 11/20/8 10/18/8
