# Blender 3.4.1
# www.blender.org
mtllib weide.002.mtl
o weide.002
v -2.606699 0.000000 -1.503032
v -2.606699 0.000000 -2.503032
v -3.472723 0.000000 -2.003032
v -3.472723 0.000000 -1.003032
v -2.606699 0.000000 -0.503032
v -1.740674 0.000000 -1.003032
v -1.740674 0.000000 -2.003032
v -2.606699 0.023227 -1.503032
v -2.606699 0.023227 -2.503032
v -3.472723 0.023227 -2.003032
v -3.472723 0.023227 -1.003032
v -2.606699 0.023227 -0.503032
v -1.740674 0.023227 -1.003032
v -1.740674 0.023227 -2.003032
vn -0.0000 -1.0000 -0.0000
vn -0.0000 1.0000 -0.0000
vn 0.5000 -0.0000 -0.8660
vn -0.5000 -0.0000 -0.8660
vn 1.0000 -0.0000 -0.0000
vn 0.5000 -0.0000 0.8660
vn -0.5000 -0.0000 0.8660
vn -1.0000 -0.0000 -0.0000
vt 0.860298 0.691076
vt 0.860298 0.754760
vt 0.500000 1.000000
vt 0.796614 0.722918
vt 0.000000 0.750000
vt 0.796614 0.659234
vt 0.000000 0.250000
vt 0.860298 0.627392
vt 0.500000 0.000000
vt 0.923982 0.659234
vt 1.000000 0.250000
vt 0.923982 0.722918
vt 1.000000 0.750000
vt 0.649590 0.841961
vt 0.644956 0.997324
vt 0.500000 1.000000
vt 0.461074 0.919257
vt 0.000000 0.750000
vt 0.463724 0.768357
vt 0.000000 0.250000
vt 0.650665 0.693610
vt 0.500000 0.000000
vt 0.835539 0.770992
vt 1.000000 0.250000
vt 0.829844 0.921020
vt 1.000000 0.750000
s 0
usemtl tiles_1
f 1/1/1 3/4/1 2/2/1
f 1/1/1 4/6/1 3/4/1
f 1/1/1 5/8/1 4/6/1
f 1/1/1 6/10/1 5/8/1
f 1/1/1 7/12/1 6/10/1
f 1/1/1 2/2/1 7/12/1
f 8/14/2 9/15/2 10/17/2
f 8/14/2 10/17/2 11/19/2
f 8/14/2 11/19/2 12/21/2
f 8/14/2 12/21/2 13/23/2
f 8/14/2 13/23/2 14/25/2
f 8/14/2 14/25/2 9/15/2
f 2/3/3 14/26/3 7/13/3
f 3/5/4 9/16/4 2/3/4
f 7/13/5 13/24/5 6/11/5
f 6/11/6 12/22/6 5/9/6
f 5/9/7 11/20/7 4/7/7
f 4/7/8 10/18/8 3/5/8
f 2/3/3 9/16/3 14/26/3
f 3/5/4 10/18/4 9/16/4
f 7/13/5 14/26/5 13/24/5
f 6/11/6 13/24/6 12/22/6
f 5/9/7 12/22/7 11/20/7
f 4/7/8 11/20/8 10/18/8
